<?xml version="1.0" encoding="UTF-8"?>
<svg width="700pt" height="700pt" version="1.1" viewBox="0 0 700 700" xmlns="http://www.w3.org/2000/svg" xmlns:xlink="http://www.w3.org/1999/xlink">
 <defs>
  <symbol id="h" overflow="visible">
   <path d="m18.766-1.125c-0.96875 0.5-1.9805 0.875-3.0312 1.125-1.043 0.25781-2.1367 0.39062-3.2812 0.39062-3.3984 0-6.0898-0.94531-8.0781-2.8438-1.9922-1.9062-2.9844-4.4844-2.9844-7.7344 0-3.2578 0.99219-5.8359 2.9844-7.7344 1.9883-1.9062 4.6797-2.8594 8.0781-2.8594 1.1445 0 2.2383 0.13281 3.2812 0.39062 1.0508 0.25 2.0625 0.625 3.0312 1.125v4.2188c-0.98047-0.65625-1.9453-1.1406-2.8906-1.4531-0.94922-0.3125-1.9492-0.46875-3-0.46875-1.875 0-3.3516 0.60547-4.4219 1.8125-1.0742 1.1992-1.6094 2.8555-1.6094 4.9688 0 2.1055 0.53516 3.7617 1.6094 4.9688 1.0703 1.1992 2.5469 1.7969 4.4219 1.7969 1.0508 0 2.0508-0.14844 3-0.45312 0.94531-0.3125 1.9102-0.80078 2.8906-1.4688z"/>
  </symbol>
  <symbol id="c" overflow="visible">
   <path d="m13.734-11.141c-0.4375-0.19531-0.87109-0.34375-1.2969-0.4375-0.41797-0.10156-0.83984-0.15625-1.2656-0.15625-1.2617 0-2.2305 0.40625-2.9062 1.2188-0.67969 0.80469-1.0156 1.9531-1.0156 3.4531v7.0625h-4.8906v-15.312h4.8906v2.5156c0.625-1 1.3438-1.7266 2.1562-2.1875 0.82031-0.46875 1.8008-0.70312 2.9375-0.70312 0.16406 0 0.34375 0.011719 0.53125 0.03125 0.19531 0.011719 0.47656 0.039062 0.84375 0.078125z"/>
  </symbol>
  <symbol id="a" overflow="visible">
   <path d="m17.641-7.7031v1.4062h-11.453c0.125 1.1484 0.53906 2.0078 1.25 2.5781 0.70703 0.57422 1.7031 0.85938 2.9844 0.85938 1.0312 0 2.082-0.14844 3.1562-0.45312 1.082-0.3125 2.1914-0.77344 3.3281-1.3906v3.7656c-1.1562 0.4375-2.3125 0.76562-3.4688 0.98438-1.1562 0.22656-2.3125 0.34375-3.4688 0.34375-2.7734 0-4.9297-0.70312-6.4688-2.1094-1.5312-1.4062-2.2969-3.3789-2.2969-5.9219 0-2.5 0.75391-4.4609 2.2656-5.8906 1.5078-1.4375 3.582-2.1562 6.2188-2.1562 2.4062 0 4.332 0.73047 5.7812 2.1875 1.4453 1.4492 2.1719 3.3828 2.1719 5.7969zm-5.0312-1.625c0-0.92578-0.27344-1.6719-0.8125-2.2344-0.54297-0.57031-1.25-0.85938-2.125-0.85938-0.94922 0-1.7188 0.26562-2.3125 0.79688s-0.96484 1.2969-1.1094 2.2969z"/>
  </symbol>
  <symbol id="f" overflow="visible">
   <path d="m9.2188-6.8906c-1.0234 0-1.793 0.17188-2.3125 0.51562-0.51172 0.34375-0.76562 0.85547-0.76562 1.5312 0 0.625 0.20703 1.1172 0.625 1.4688 0.41406 0.34375 0.98828 0.51562 1.7188 0.51562 0.92578 0 1.7031-0.32812 2.3281-0.98438 0.63281-0.66406 0.95312-1.4922 0.95312-2.4844v-0.5625zm7.4688-1.8438v8.7344h-4.9219v-2.2656c-0.65625 0.92969-1.3984 1.6055-2.2188 2.0312-0.82422 0.41406-1.8242 0.625-3 0.625-1.5859 0-2.8711-0.45703-3.8594-1.375-0.99219-0.92578-1.4844-2.1289-1.4844-3.6094 0-1.7891 0.61328-3.1016 1.8438-3.9375 1.2383-0.84375 3.1797-1.2656 5.8281-1.2656h2.8906v-0.39062c0-0.76953-0.30859-1.332-0.92188-1.6875-0.61719-0.36328-1.5703-0.54688-2.8594-0.54688-1.0547 0-2.0312 0.10547-2.9375 0.3125-0.89844 0.21094-1.7305 0.52344-2.5 0.9375v-3.7344c1.0391-0.25 2.0859-0.44141 3.1406-0.57812 1.0625-0.13281 2.125-0.20312 3.1875-0.20312 2.7578 0 4.75 0.54688 5.9688 1.6406 1.2266 1.0859 1.8438 2.8555 1.8438 5.3125z"/>
  </symbol>
  <symbol id="b" overflow="visible">
   <path d="m7.7031-19.656v4.3438h5.0469v3.5h-5.0469v6.5c0 0.71094 0.14062 1.1875 0.42188 1.4375s0.83594 0.375 1.6719 0.375h2.5156v3.5h-4.1875c-1.9375 0-3.3125-0.39844-4.125-1.2031-0.80469-0.8125-1.2031-2.1797-1.2031-4.1094v-6.5h-2.4219v-3.5h2.4219v-4.3438z"/>
  </symbol>
  <symbol id="k" overflow="visible">
   <path d="m12.766-13.078v-8.2031h4.9219v21.281h-4.9219v-2.2188c-0.66797 0.90625-1.4062 1.5703-2.2188 1.9844s-1.7578 0.625-2.8281 0.625c-1.8867 0-3.4336-0.75-4.6406-2.25-1.2109-1.5-1.8125-3.4258-1.8125-5.7812 0-2.3633 0.60156-4.2969 1.8125-5.7969 1.207-1.5 2.7539-2.25 4.6406-2.25 1.0625 0 2 0.21484 2.8125 0.64062 0.82031 0.42969 1.5664 1.0859 2.2344 1.9688zm-3.2188 9.9219c1.0391 0 1.8359-0.37891 2.3906-1.1406 0.55078-0.76953 0.82812-1.8828 0.82812-3.3438 0-1.457-0.27734-2.5664-0.82812-3.3281-0.55469-0.76953-1.3516-1.1562-2.3906-1.1562-1.043 0-1.8398 0.38672-2.3906 1.1562-0.55469 0.76172-0.82812 1.8711-0.82812 3.3281 0 1.4609 0.27344 2.5742 0.82812 3.3438 0.55078 0.76172 1.3477 1.1406 2.3906 1.1406z"/>
  </symbol>
  <symbol id="j" overflow="visible">
   <path d="m10.5-3.1562c1.0508 0 1.8516-0.37891 2.4062-1.1406 0.55078-0.76953 0.82812-1.8828 0.82812-3.3438 0-1.457-0.27734-2.5664-0.82812-3.3281-0.55469-0.76953-1.3555-1.1562-2.4062-1.1562-1.0547 0-1.8594 0.38672-2.4219 1.1562-0.55469 0.77344-0.82812 1.8828-0.82812 3.3281 0 1.4492 0.27344 2.5586 0.82812 3.3281 0.5625 0.77344 1.3672 1.1562 2.4219 1.1562zm-3.25-9.9219c0.67578-0.88281 1.4219-1.5391 2.2344-1.9688 0.82031-0.42578 1.7656-0.64062 2.8281-0.64062 1.8945 0 3.4453 0.75 4.6562 2.25 1.207 1.5 1.8125 3.4336 1.8125 5.7969 0 2.3555-0.60547 4.2812-1.8125 5.7812-1.2109 1.5-2.7617 2.25-4.6562 2.25-1.0625 0-2.0078-0.21094-2.8281-0.625-0.8125-0.42578-1.5586-1.0859-2.2344-1.9844v2.2188h-4.8906v-21.281h4.8906z"/>
  </symbol>
  <symbol id="i" overflow="visible">
   <path d="m0.34375-15.312h4.8906l4.125 10.391 3.5-10.391h4.8906l-6.4375 16.766c-0.64844 1.6953-1.4023 2.8828-2.2656 3.5625-0.86719 0.6875-2 1.0312-3.4062 1.0312h-2.8438v-3.2188h1.5312c0.83203 0 1.4375-0.13672 1.8125-0.40625 0.38281-0.26172 0.67969-0.73047 0.89062-1.4062l0.14062-0.42188z"/>
  </symbol>
  <symbol id="e" overflow="visible">
   <path d="m2.5781-20.406h8.7344c2.5938 0 4.582 0.57812 5.9688 1.7344 1.3945 1.1484 2.0938 2.7891 2.0938 4.9219 0 2.1367-0.69922 3.7812-2.0938 4.9375-1.3867 1.1562-3.375 1.7344-5.9688 1.7344h-3.4844v7.0781h-5.25zm5.25 3.8125v5.7031h2.9219c1.0195 0 1.8047-0.25 2.3594-0.75 0.5625-0.5 0.84375-1.2031 0.84375-2.1094 0-0.91406-0.28125-1.6172-0.84375-2.1094-0.55469-0.48828-1.3398-0.73438-2.3594-0.73438z"/>
  </symbol>
  <symbol id="s" overflow="visible">
   <path d="m2.3594-21.281h4.8906v21.281h-4.8906z"/>
  </symbol>
  <symbol id="d" overflow="visible">
   <path d="m9.6406-12.188c-1.0859 0-1.9141 0.39062-2.4844 1.1719-0.57422 0.78125-0.85938 1.9062-0.85938 3.375s0.28516 2.5938 0.85938 3.375c0.57031 0.77344 1.3984 1.1562 2.4844 1.1562 1.0625 0 1.875-0.38281 2.4375-1.1562 0.57031-0.78125 0.85938-1.9062 0.85938-3.375s-0.28906-2.5938-0.85938-3.375c-0.5625-0.78125-1.375-1.1719-2.4375-1.1719zm0-3.5c2.6328 0 4.6914 0.71484 6.1719 2.1406 1.4766 1.418 2.2188 3.3867 2.2188 5.9062 0 2.5117-0.74219 4.4805-2.2188 5.9062-1.4805 1.418-3.5391 2.125-6.1719 2.125-2.6484 0-4.7148-0.70703-6.2031-2.125-1.4922-1.4258-2.2344-3.3945-2.2344-5.9062 0-2.5195 0.74219-4.4883 2.2344-5.9062 1.4883-1.4258 3.5547-2.1406 6.2031-2.1406z"/>
  </symbol>
  <symbol id="g" overflow="visible">
   <path d="m17.75-9.3281v9.3281h-4.9219v-7.1406c0-1.3203-0.03125-2.2344-0.09375-2.7344s-0.16797-0.86719-0.3125-1.1094c-0.1875-0.3125-0.44922-0.55469-0.78125-0.73438-0.32422-0.17578-0.69531-0.26562-1.1094-0.26562-1.0234 0-1.8242 0.39844-2.4062 1.1875-0.58594 0.78125-0.875 1.8711-0.875 3.2656v7.5312h-4.8906v-15.312h4.8906v2.2344c0.73828-0.88281 1.5195-1.5391 2.3438-1.9688 0.83203-0.42578 1.75-0.64062 2.75-0.64062 1.7695 0 3.1133 0.54688 4.0312 1.6406 0.91406 1.0859 1.375 2.6562 1.375 4.7188z"/>
  </symbol>
  <symbol id="r" overflow="visible">
   <path d="m12.422-21.281v3.2188h-2.7031c-0.6875 0-1.1719 0.125-1.4531 0.375-0.27344 0.25-0.40625 0.6875-0.40625 1.3125v1.0625h4.1875v3.5h-4.1875v11.812h-4.8906v-11.812h-2.4375v-3.5h2.4375v-1.0625c0-1.6641 0.46094-2.8984 1.3906-3.7031 0.92578-0.80078 2.3672-1.2031 4.3281-1.2031z"/>
  </symbol>
  <symbol id="q" overflow="visible">
   <path d="m16.547-12.766c0.61328-0.94531 1.3477-1.6719 2.2031-2.1719 0.85156-0.5 1.7891-0.75 2.8125-0.75 1.7578 0 3.0977 0.54688 4.0156 1.6406 0.92578 1.0859 1.3906 2.6562 1.3906 4.7188v9.3281h-4.9219v-7.9844-0.35938c0.007813-0.13281 0.015625-0.32031 0.015625-0.5625 0-1.082-0.16406-1.8633-0.48438-2.3438-0.3125-0.48828-0.82422-0.73438-1.5312-0.73438-0.92969 0-1.6484 0.38672-2.1562 1.1562-0.51172 0.76172-0.77344 1.8672-0.78125 3.3125v7.5156h-4.9219v-7.9844c0-1.6953-0.14844-2.7852-0.4375-3.2656-0.29297-0.48828-0.8125-0.73438-1.5625-0.73438-0.9375 0-1.6641 0.38672-2.1719 1.1562-0.51172 0.76172-0.76562 1.8594-0.76562 3.2969v7.5312h-4.9219v-15.312h4.9219v2.2344c0.60156-0.86328 1.2891-1.5156 2.0625-1.9531 0.78125-0.4375 1.6406-0.65625 2.5781-0.65625 1.0625 0 2 0.25781 2.8125 0.76562 0.8125 0.51172 1.4258 1.2305 1.8438 2.1562z"/>
  </symbol>
  <symbol id="p" overflow="visible">
   <path d="m17.75-9.3281v9.3281h-4.9219v-7.1094c0-1.3438-0.03125-2.2656-0.09375-2.7656s-0.16797-0.86719-0.3125-1.1094c-0.1875-0.3125-0.44922-0.55469-0.78125-0.73438-0.32422-0.17578-0.69531-0.26562-1.1094-0.26562-1.0234 0-1.8242 0.39844-2.4062 1.1875-0.58594 0.78125-0.875 1.8711-0.875 3.2656v7.5312h-4.8906v-21.281h4.8906v8.2031c0.73828-0.88281 1.5195-1.5391 2.3438-1.9688 0.83203-0.42578 1.75-0.64062 2.75-0.64062 1.7695 0 3.1133 0.54688 4.0312 1.6406 0.91406 1.0859 1.375 2.6562 1.375 4.7188z"/>
  </symbol>
  <symbol id="o" overflow="visible">
   <path d="m2.5781-20.406h5.875l7.4219 14v-14h4.9844v20.406h-5.875l-7.4219-14v14h-4.9844z"/>
  </symbol>
  <symbol id="n" overflow="visible">
   <path d="m2.1875-5.9688v-9.3438h4.9219v1.5312c0 0.83594-0.007813 1.875-0.015625 3.125-0.011719 1.25-0.015625 2.0859-0.015625 2.5 0 1.2422 0.03125 2.1328 0.09375 2.6719 0.070313 0.54297 0.17969 0.93359 0.32812 1.1719 0.20703 0.32422 0.47266 0.57422 0.79688 0.75 0.32031 0.16797 0.69141 0.25 1.1094 0.25 1.0195 0 1.8203-0.39062 2.4062-1.1719 0.58203-0.78125 0.875-1.8672 0.875-3.2656v-7.5625h4.8906v15.312h-4.8906v-2.2188c-0.74219 0.89844-1.5234 1.5586-2.3438 1.9844-0.82422 0.41406-1.7344 0.625-2.7344 0.625-1.7617 0-3.1055-0.53906-4.0312-1.625-0.92969-1.082-1.3906-2.6602-1.3906-4.7344z"/>
  </symbol>
  <symbol id="m" overflow="visible">
   <path d="m2.3594-15.312h4.8906v15.031c0 2.0508-0.49609 3.6172-1.4844 4.7031-0.98047 1.082-2.4062 1.625-4.2812 1.625h-2.4219v-3.2188h0.85938c0.92578 0 1.5625-0.21094 1.9062-0.625 0.35156-0.41797 0.53125-1.2461 0.53125-2.4844zm0-5.9688h4.8906v4h-4.8906z"/>
  </symbol>
  <symbol id="l" overflow="visible">
   <path d="m14.719-14.828v3.9844c-0.65625-0.45703-1.3242-0.79688-2-1.0156-0.66797-0.21875-1.3594-0.32812-2.0781-0.32812-1.3672 0-2.4336 0.40234-3.2031 1.2031-0.76172 0.79297-1.1406 1.9062-1.1406 3.3438 0 1.4297 0.37891 2.543 1.1406 3.3438 0.76953 0.79297 1.8359 1.1875 3.2031 1.1875 0.75781 0 1.4844-0.10938 2.1719-0.32812 0.6875-0.22656 1.3203-0.56641 1.9062-1.0156v4c-0.76172 0.28125-1.5391 0.48828-2.3281 0.625-0.78125 0.14453-1.5742 0.21875-2.375 0.21875-2.7617 0-4.9219-0.70703-6.4844-2.125-1.5547-1.4141-2.3281-3.3828-2.3281-5.9062 0-2.5312 0.77344-4.5039 2.3281-5.9219 1.5625-1.4141 3.7227-2.125 6.4844-2.125 0.80078 0 1.5938 0.074219 2.375 0.21875 0.78125 0.13672 1.5547 0.35156 2.3281 0.64062z"/>
  </symbol>
 </defs>
 <g>
  <path d="m352.65 154.53c7.2031 0 5.6328 12.516 12.523 25.344 6.8828 12.824 17.512 21.117 40.434 18.137 22.914-2.9688 27.137-17.832 27.137-17.832s7.5078-22.211 9.3789-27.066c1.8867-4.8477 5.0117-3.9102 5.0117-4.6914l2.0391-12.668s-41.301-10.641-87.129 2.3398c0 0-6.5703 1.875-9.3906 1.875h-5.2969c-2.8164 0-9.3867-1.875-9.3867-1.875-45.836-12.98-87.137-2.3398-87.137-2.3398l2.0391 12.668c0 0.78516 3.125-0.15625 5.0117 4.6914 1.8711 4.8477 9.3789 27.066 9.3789 27.066s4.2227 14.863 27.137 17.832c22.914 2.9805 33.551-5.3125 40.434-18.137 6.8828-12.828 5.3203-25.344 12.523-25.344z"/>
  <path d="m123.36 390.99s-19.926 93.918-19.926 96.203c0 1.0352-2.6055 22.102-5.4414 44.695h57.641z"/>
  <path d="m596.56 487.19c0-2.2773-19.926-96.203-19.926-96.203l-32.277 140.89 57.645 0.003906c-2.832-22.598-5.4414-43.656-5.4414-44.695z"/>
  <path d="m535.05 531.88c0.95312-4.1328 1.5625-6.7656 1.6523-7.1289 0.57031-2.2734 31.305-137.75 31.305-137.75l-31.305-25.047-35.293-7.9688-10.246-8.5352-26.75-9.6836-12.617-3.5039s-1.832 97.562-101.79 143.21c-99.965-45.645-101.8-143.21-101.8-143.21l-12.609 3.5039-26.75 9.6836-10.254 8.5352-35.293 7.9688-31.297 25.047s30.734 135.47 31.297 137.75c0.089844 0.36328 0.69922 2.9961 1.6523 7.1289z"/>
  <path d="m248.71 214.54c-0.92969 0.10547-1.8086 0.60547-2.6641-0.55469-0.3125-0.42578-1.6953-0.074219-2.9219-0.074219 0.95703-0.50781 1.7539-0.93359 2.3906-1.2656 1.1055 0.64844 2.1523 1.2734 3.1953 1.8945z" fill-rule="evenodd"/>
  <path d="m449 210.54-0.039063-0.011718 0.007813 0.042968z"/>
  <path d="m233.22 292.42c0.56641 1.0469 1.1328 2.1016 1.7344 3.2148-0.60547-1.1094-1.1641-2.168-1.7344-3.2148z"/>
  <path d="m251.16 211.8c-0.53906 0.59375-1.043 1.1641-1.5273 1.7188 0.48438-0.55469 0.98828-1.125 1.5273-1.7188z"/>
  <path d="m248.71 214.54h0.003907l-0.003907-0.007813z"/>
  <path d="m248.68 214.43c0.015624 0.035156 0.015624 0.066406 0.027343 0.10547-0.011719-0.042968-0.011719-0.078125-0.027343-0.10547z"/>
  <path d="m249.49 205.59c-0.46875-0.11719-0.81641-0.66797-1.5195-1.7695 0.69531 1.1094 1.0469 1.6602 1.5195 1.7695z"/>
  <path d="m448.96 210.53c-0.085937-0.55859-0.16406-1.125-0.25781-1.7305 0.097656 0.60547 0.17578 1.168 0.25781 1.7305z"/>
  <path d="m248.71 214.54 0.003907 0.007813-0.003907-0.011719z"/>
  <path d="m443.05 189.26c0.20312 1.3594 0.32422 2.1602 0.44141 2.9609 0.16797 0.011719 0.34766 0.015625 0.51953 0.023438 0.21875-1.0586 0.4375-2.1211 0.64844-3.1914 0.14453 0.003907 0.29688 0.015625 0.4375 0.027344-0.050781 0.97266 0.125 2.0391-0.20703 2.9062-0.33203 0.82422-1.1875 1.4492-2.168 2.5664 0.12109-1.8828 0.20312-3.3047 0.32812-5.293z" fill-rule="evenodd"/>
  <path d="m451.85 214.34c-1.2109-0.76562-2.4297-1.5234-3.6289-2.2852 0.26172-0.50781 0.51562-1.0195 0.77344-1.5234l-0.035156 0.035156c0.96094 1.2617 1.9297 2.5156 2.8906 3.7734z" fill-rule="evenodd"/>
  <path d="m337.64 403.78-0.0625-0.074219c-0.015625 0-0.027344 0.003907-0.042969 0.011719 0.027344 0.019531 0.070312 0.035156 0.10547 0.0625z"/>
  <path d="m365.63 406.21c-0.10547 0.050781-0.22266 0.13281-0.26172 0.10156 0.03125 0.03125 0.15625-0.050782 0.26172-0.10156z"/>
  <path d="m268.92 376.81c-0.011719-0.050782-0.011719-0.10547-0.011719-0.16406-0.003906 0.054688 0 0.11328 0.011719 0.16406z"/>
  <path d="m245.48 361.61c-0.10156-0.039063-0.20312-0.085937-0.29297-0.14062 0.097656 0.054688 0.19922 0.10156 0.29297 0.14062z"/>
  <path d="m269.02 377.05c-0.039062-0.066407-0.066406-0.12891-0.085937-0.19531 0.019531 0.066406 0.046875 0.12891 0.085937 0.19531z"/>
  <path d="m245.12 361.43c-0.074219-0.042969-0.13281-0.085937-0.20312-0.12891 0.066406 0.039063 0.12891 0.078125 0.20312 0.12891z"/>
  <path d="m358.07 404.09c-0.011718 0.035156-0.042968 0.0625-0.066406 0.085937 0.019532-0.03125 0.050782-0.050781 0.066406-0.085937z"/>
  <path d="m270.01 379.15c-0.042968 0.085937-0.10156 0.16797-0.17187 0.25391 0.078124-0.09375 0.13281-0.17578 0.17187-0.25391z"/>
  <path d="m269.15 376.08c0.054687-0.0625 0.11719-0.11719 0.19141-0.17969-0.074219 0.0625-0.13672 0.12109-0.19141 0.17969z"/>
  <path d="m268.98 376.33c0.027343-0.054687 0.0625-0.10547 0.10156-0.16406-0.046875 0.058593-0.074219 0.10547-0.10156 0.16406z"/>
  <path d="m354.72 405.89c-0.20312-0.09375-0.39844-0.19531-0.58984-0.3125 0.19141 0.11719 0.38672 0.21484 0.58984 0.3125z"/>
  <path d="m416.66 392.8c-0.18359 0.20312-0.39844 0.42188-0.63281 0.6875 0.23438-0.26562 0.44531-0.48438 0.63281-0.6875z"/>
  <path d="m225.9 326.47c-0.76563-0.90625-1.5273-1.8086-2.3477-2.793 0.82031 0.98438 1.582 1.8867 2.3477 2.793z"/>
  <path d="m268.91 376.57c0.003906-0.050781 0.015625-0.10547 0.039062-0.15625-0.027343 0.050782-0.035156 0.10156-0.039062 0.15625z"/>
  <path d="m441.55 380.21c0.011718-0.066406 0.015624-0.13281 0.023437-0.20312-0.023437 0.050782-0.050781 0.10547-0.078125 0.15625z"/>
  <path d="m269.43 375.81c0.11719-0.09375 0.25391-0.18359 0.41016-0.28516-0.16016 0.10156-0.29297 0.19922-0.41016 0.28516z"/>
  <path d="m358.07 403.5c0.003907 0.023438 0.003907 0.050782 0.011719 0.074219-0.007812-0.023437-0.007812-0.046875-0.011719-0.074219z"/>
  <path d="m358.1 403.93c0 0.023437-0.003906 0.042968-0.015624 0.0625 0.011718-0.019532 0.015624-0.042969 0.015624-0.0625z"/>
  <path d="m358.05 403.42c-0.011719-0.050781-0.015626-0.10156-0.035157-0.15234 0.011719 0.050781 0.015625 0.097656 0.035157 0.15234z"/>
  <path d="m241.07 359.09c2.0117-0.65625 2.6445 1.2422 3.8125 2.168-1.168-0.92578-1.8008-2.8242-3.8125-2.168z"/>
  <path d="m396.45 401.7c0.25391 0.023437 0.51563 0.050781 0.77734 0.066406-0.26172-0.015625-0.52344-0.039063-0.77734-0.066406z"/>
  <path d="m269.02 377.06c0.33984 0.59766 1.2695 1.125 1.082 1.8594 0.19141-0.73438-0.73438-1.2578-1.082-1.8594z"/>
  <path d="m425.98 386.16-0.039062 0.027344v0.011719z"/>
  <path d="m394.74 403.43c0.57812-0.58203 1.1406-1.1602 1.707-1.7344-0.57031 0.57812-1.1289 1.1523-1.707 1.7344z"/>
  <path d="m356.59 406.7 0.011718-0.011718-0.066406-0.027344v0.011719z"/>
  <path d="m487.02 335.98 0.046875 0.023438z"/>
  <path d="m357.22 404.27c0.39062 0.078125 0.62109 0.042969 0.75-0.054687-0.12891 0.10156-0.35938 0.13281-0.75 0.054687z"/>
  <path d="m356.54 406.67 0.023438 0.050781z"/>
  <path d="m487.11 335.96c-0.027344 0-0.0625 0.003907-0.089844 0.015625 0.027344-0.007812 0.0625-0.011718 0.089844-0.015625z"/>
  <path d="m270.11 378.92c0.37109-0.67578 0.71875-1.293 1.0547-1.8984-0.33203 0.60156-0.6875 1.2266-1.0547 1.8984z"/>
  <path d="m242.88 357.36c-0.62109 0.58984-1.2266 1.1641-1.8242 1.7344 0.003906 0 0.011718 0 0.011718-0.003906 0.59375-0.57031 1.1953-1.1445 1.8125-1.7305z"/>
  <path d="m417.18 392.19h0.015625v0.066406h-0.015625z"/>
  <path d="m441.5 380.16c0.027344-0.050781 0.054688-0.10547 0.078125-0.15625-0.023437 0.050781-0.046875 0.10156-0.078125 0.15625z"/>
  <path d="m365.65 406.19 0.003906-0.007812z"/>
  <path d="m417.18 392.25 0.03125-0.039063-0.03125 0.035157z"/>
  <path d="m487.02 335.98c0.015625 0.003907 0.027344 0.015626 0.042969 0.023438l0.042969-0.042969c-0.023438 0.003907-0.058594 0.007813-0.085938 0.019531z"/>
  <path d="m226.08 326.69 0.023438 0.039062z"/>
  <path d="m241.06 359.09-0.039063 0.011719 0.019531 0.011719z"/>
  <path d="m356.54 406.67 0.023438 0.050781 0.03125-0.023438z"/>
  <path d="m337.52 403.72 0.042968-0.011718z"/>
  <path d="m226.08 326.68v0.003907l-0.011719-0.007813 0.011719 0.007813v0.007812z"/>
  <path d="m269.84 379.4c0.074218-0.089844 0.12891-0.17188 0.17188-0.25391 0.042969-0.078125 0.074219-0.15625 0.09375-0.23047-0.097657 0.16797-0.17578 0.31641-0.26562 0.48438z"/>
  <path d="m337.6 401.31c0.69531-0.09375 1.3789-0.19531 2.0664-0.29297-0.16406 0.5-0.32031 0.99219-0.53125 1.6641h-0.4375c0.19141 0.875 0.36328 1.6914 0.5 2.3008-0.46484-0.36328-1.043-0.81641-1.625-1.2773l0.0625 0.074219c0.14062-0.37109 0.27344-0.72266 0.41406-1.0938-1.625 0.027344-0.10156-0.98438-0.44922-1.375z" fill-rule="evenodd"/>
  <path d="m417.18 392.25c0.25391 0.003906 0.67578-0.085938 0.72656 0.023437 0.66016 1.3086 1.9336 1.5391 3.1406 1.9648 0.28125 0.10156 0.375 0.72656 0.61719 1.2383-0.78516-0.15625-1.3477-0.28125-2.3477-0.48047-0.46875-0.63281-1.2812-1.7148-2.0938-2.793 0-0.003907-0.042969 0.046875-0.042969 0.046875z" fill-rule="evenodd"/>
  <path d="m244.92 365.6c-0.18359-1.7812-1.2656-2.4453-2.8906-2.4023 0.46484-1.1094 0.46484-1.1094 1.8359-0.58984 1.3125 0.5 1.7305 1.4805 1.0547 2.9922z" fill-rule="evenodd"/>
  <path d="m487.07 336c0.58984 0.41016 1.1719 0.82422 2.043 1.4375-0.81641 0.375-1.418 0.64844-2.1328 0.96875 0.125 0.5 0.27344 1.1016 0.42969 1.7031-0.89062-0.28516-0.89062-0.28516-0.28516-4.1562-0.003906-0.003906-0.054688 0.046875-0.054688 0.046875z" fill-rule="evenodd"/>
  <path d="m356.56 406.72c0.56641 0.44922 0.48047 1.9531 1.9219 1.043-0.050781 0.76562-0.10156 1.4688-0.14453 2.1562-0.14453 0.042969-0.29688 0.078125-0.44922 0.125-0.64844-1.0117-1.9922-1.6875-1.293-3.3555 0.007812-0.003906-0.035156 0.03125-0.035156 0.03125z" fill-rule="evenodd"/>
  <path d="m363.64 405.35c0.78906 1.3164 1.5625 2.6211 2.3477 3.9297-1.1016-1.0898-3.3086-1.4453-2.3477-3.9297z" fill-rule="evenodd"/>
  <path d="m484.07 345.71c0.62109 1.0938 1.25 2.1836 1.6641 2.9102-1.9609-0.48047-2.0703-0.58203-2.2188-2.3516 0.1875-0.19141 0.37109-0.375 0.55469-0.55859z" fill-rule="evenodd"/>
  <path d="m441.5 380.16c0.21094 0.30078 0.42188 0.60547 0.62891 0.91406-0.042968 0.089844-0.10156 0.17969-0.14453 0.26172-0.93359-0.58203-1.8594-1.1641-2.7891-1.7461 0.09375-0.30859 0.37109-0.75781 0.25781-0.91406-0.51562-0.6875-0.50391-1.0859 0.42578-1.2305l-0.074218-0.027344c0.58203 0.92969 1.1641 1.8633 1.7461 2.793z" fill-rule="evenodd"/>
  <path d="m241.02 359.11c-0.10547 0.75781-0.21094 1.5117-0.33203 2.2617-0.085938-0.039063-0.17188-0.074219-0.25781-0.10547-0.39844-1.5586-0.78906-3.1094-1.1719-4.6641 0.17969-0.035156 0.35938-0.074218 0.54297-0.10547 0.15625 0.83594 0.28125 1.6797 0.49219 2.4961 0.023437 0.10156 0.48828 0.09375 0.74609 0.13281 0-0.003906-0.019531-0.015625-0.019531-0.015625z" fill-rule="evenodd"/>
  <path d="m241.35 348.08c-0.14453-0.51562-0.30859-1.0742-0.46484-1.6367-0.14062 0.023438-0.27344 0.042969-0.41406 0.074219 0.27344-0.54297 0.55859-1.082 1.0352-2.0117-0.19531 1.4688 1.7773 2.5391-0.15625 3.5742z"/>
  <path d="m259.14 369.23c-0.61719-0.10156-1.1797-0.19531-1.8984-0.30859 0.90625-0.69922 1.6953-1.3164 2.4805-1.9258 0.11328 0.09375 0.21875 0.18359 0.32422 0.27344-0.28516 0.63672-0.57422 1.2695-0.90625 1.9609z"/>
  <path d="m258.48 365.03c0.53906-1.1641 0.99609-2.1602 1.5078-3.2539 0.56641 0.11719 1.0977 0.22266 1.6289 0.32422-0.23828 1.6367-1.3633 2.7852-3.1367 2.9297z"/>
  <path d="m267.69 367.2c-0.42969 0.55859-0.91406 1.0703-1.3789 1.6055-0.125-0.60547-0.35156-1.2109-0.33594-1.8086 0.015626-0.57031 0.28125-1.1367 0.44141-1.6953 0.15234 0.039062 0.30078 0.078124 0.45312 0.11719-0.20312 0.58984-0.41016 1.1719-0.60938 1.7578 0.19531 0.16797 0.39062 0.33594 0.58984 0.5 0.16797-0.51563 0.33984-1.0352 0.50781-1.5586 0.16797 0.12891 0.33594 0.25781 0.50391 0.38672-0.050781 0.23438-0.039062 0.52344-0.17188 0.69531z"/>
  <path d="m290.71 389.29c-0.47656-0.09375-1.0195-0.19531-1.5859-0.30859-0.73828-2.0234 1.1133-1.2227 1.7031-1.7969 0.10156 0.10156 0.20312 0.20312 0.29688 0.29687-0.14453 0.62109-0.27734 1.2344-0.41406 1.8086z"/>
  <path d="m297.25 392.82c-0.64453-1.9023-1.0742-3.6016 1.3008-4.5977-0.32422 0.64453-0.61719 1.2383-0.91797 1.8359 1.0742 0.55078 1.0508 1.2266-0.38281 2.7617z"/>
  <path d="m306.31 393.53c-1.0547-0.72656-1.3047-1.8477-0.98047-2.9844 0.19531-0.70703 2.1797-0.67578 2.7227-0.16797-0.57812 1.043-1.1328 2.0469-1.7422 3.1523z"/>
  <path d="m312.86 394.49c-0.20703-0.13281-0.42188-0.26953-0.63672-0.40234 0.13281-0.69922 0.26172-1.3906 0.39062-2.0625 0.64844 0.22266 1.1133 0.38672 2.0312 0.70703-0.69141 0.67969-1.2344 1.2188-1.7852 1.7578z"/>
  <path d="m347.36 401.46c0.085938-0.13281 0.16406-0.26953 0.24609-0.41016 0.97266 0.60937 1.9492 1.2227 3.0352 1.9102-2.207 1.2266-2.1641-1.1328-3.2812-1.5z"/>
  <path d="m363.45 400.8c0.32422-0.42188 0.57813-1.0547 0.99609-1.1992 0.34766-0.11328 0.89062 0.35156 1.3438 0.55859-0.078125 0.16797-0.15625 0.33594-0.24219 0.5-0.35938-0.015625-0.72656-0.039062-1.0859-0.050781-0.015625 0.085937-0.035156 0.17188-0.054687 0.25781 0.36328 0.09375 0.79688 0.10547 1.082 0.30859 0.29688 0.21094 0.46484 0.60547 0.45312 1.2695-0.82422-0.53906-1.6641-1.0938-2.4922-1.6445z"/>
  <path d="m377.95 403.9c0.58203-0.98438 0.89453-1.5078 1.2422-2.0898 0.59375 0.54688 1.1914 1.0977 2.1172 1.9336-1.293 0.0625-2.1406 0.10156-3.3594 0.15625z"/>
  <path d="m404.59 395.61c-0.21094-1.0117-0.33594-1.6055-0.49219-2.3789-0.27344 0.44141-0.47656 0.75-0.67188 1.0586-1.1211-1.8555-0.74609-2.5859 1.8203-3-0.50391 0.53906-0.82422 0.87891-1.1484 1.2227 1.8516 0.29688 2.0195 0.83984 0.49219 3.0977z"/>
  <path d="m406.29 395.46c0.32422-1.9922 0.66016-3.9922 0.99219-5.9922 0.15234 0.015625 0.30078 0.039063 0.45312 0.054688 0.15625 2.0938 0.63281 4.2383-1.4453 5.9375z"/>
  <path d="m420.23 389.77c-0.32422-0.37891-0.55859-0.77734-0.90234-1.0195-0.29688-0.20703-0.72656-0.23438-1.0859-0.34766 0.09375-0.17969 0.22266-0.53906 0.29687-0.52734 0.53125 0.078125 1.0977 0.14453 1.5742 0.375 0.38672 0.17969 0.67188 0.57812 1.0742 0.94531-0.33203 0.20312-0.66016 0.40625-0.95703 0.57422z"/>
  <path d="m446.91 371.09c-0.58984-0.63281-1.0547-1.1211-1.6016-1.7031 0.30078 0.054688 0.48828 0.09375 0.78906 0.15234-0.19141-0.60547-0.375-1.1758-0.55859-1.7422 0.20312-0.16406 0.39062-0.33594 0.59375-0.5 0.27344 1.0352 0.57031 2.0703 0.85156 3.1211 0.37109-0.25781 0.72656-0.50391 1.0938-0.76172-0.36719 0.44531-0.73828 0.89453-1.168 1.4336z"/>
  <path d="m471.05 356.11c-0.69531-0.50781-1.3789-1.0195-2.2383-1.6523 0.53906-0.375 0.91797-0.63281 1.5664-1.0938 0.47656 0.96875 0.82812 1.707 1.1875 2.4375-0.16797 0.10547-0.34766 0.20703-0.51562 0.30859z"/>
  <path d="m480.06 337.57c-2.957 0.16406-2.957 0.16406-2.8047-1.4102-1.043-0.21875-2.082-0.42969-3.1367-0.65625 0.023437-0.14453 0.054687-0.30078 0.085937-0.45312 0.58203 0.074219 1.1641 0.14062 1.7852 0.21875-0.14062-0.37891-0.26172-0.70703-0.54688-1.4961 1.7344 1.4336 3.1016 2.543 4.6172 3.7969z"/>
  <path d="m337.64 401.38h-1.2695c-0.32031 0.54688-0.57031 0.96484-0.82422 1.3789-0.13281-0.80469-0.28125-1.6133-0.41406-2.3984 0.56641-0.027344 1.4297-0.089844 2.4531-0.14453 0.015624 0.33984 0.039062 0.75391 0.054687 1.1641z" fill-rule="evenodd"/>
  <path d="m490.04 332.15c0.26953 0.085937 0.67188-0.22266 1.2812-0.44141-3.1602-1.0703-6.3672-0.86328-8.0117-3.8906 0.375-0.16797 0.69922-0.30859 0.78516-0.33984-0.49219-0.44141-1.0312-0.91797-1.6289-1.4492-0.23438 0.39844-0.53125 0.94531-0.89063 1.457-0.28516 0.41016-0.64844 0.77734-0.74609 0.89062-0.96484-2.5078-1.8477-4.8164-2.7539-7.1953-0.035156 0.023437 0.21875-0.14063 0.39063-0.25781-0.47656-0.19141-0.94531-0.375-1.4219-0.56641 0.054688-0.14062 0.10547-0.28516 0.15625-0.42578 0.49219 0.13281 0.98438 0.26953 1.5234 0.42187l-0.25391-0.58984 1.5977-2.2305 2.207-0.46484c-0.09375-0.20703-0.09375-0.58203 0.035157-0.72656 0.6875-0.77734 1.4453-1.4961 2.1562-2.2461 0.38672-0.41016 0.85156-0.78906 1.0977-1.2695 0.88672-1.7188-1.7578-2.3906-1.2539-4.0312-2.2695-0.92578-2.7773-2.4414-1.4297-4.4531-0.77344-0.33203-1.4336-0.61719-1.9766-0.85156 0.28516 0.61719 0.55469 1.1914 0.81641 1.7695-1.2812 0.47656-0.38672 1.25-0.10547 1.6914 0.82422 1.3047 0.57812 2.4023-0.75781 4.0156-0.37109-0.94141-0.85547-1.5898-0.8125-2.1914 0.12891-1.5977-1.1406-3.9922-2.5977-4.6992-0.45312-0.21094-1.0195-0.72266-1.0547-1.1367-0.0625-0.69922 0.26953-1.4375 0.46094-2.2773-2.6328 0.77734-2.4141-1.8984-3.4609-3.2422 0.12891-0.16406 0.26953-0.3125 0.40234-0.47656 0.62109 0.53125 1.2539 1.0586 1.8828 1.5977-0.19531-0.83984-0.71875-1.4727-1.1797-2.1289-0.27344-0.38672-0.46484-0.81641-0.6875-1.2305h-0.011719c-0.011719 0-0.011719 0.003906-0.023438 0.011718 0.011719 0 0.011719-0.003906 0.015625-0.011718-0.52734-0.21094-1.0859-0.37109-1.5391-0.6875-0.09375-0.0625 0.24609-1.082 0.37891-1.082 0.96875 0 1.9375 0.15234 2.9297 0.70703-0.58984 0.35156-1.1758 0.71094-1.7695 1.0625h0.003906c1.2109-0.59375 2.418-1.1875 3.2539-1.6016-0.92969-0.90625-1.5977-1.5508-2.6094-2.543 1.2109-0.28125 2.082-0.47656 3.2773-0.75-0.98047-0.25781-1.6289-0.4375-2.1289-0.56641v-2.5742c0.39062 0.16797 0.8125 0.33984 1.2227 0.51562-0.19531 0.55859-0.34766 0.99219-0.53906 1.5352 0.95312-0.32031 0.95312-0.32031 0.81641-3.668-0.57812-0.28125-1.0195-0.49219-1.4688-0.71094 0.28125-0.55859 0.55859-1.1133 0.91406-1.8438-0.95312-0.76562-3.0234-1.1641-2.6641-3.375 0.67188-0.13281 1.293-0.26172 1.4688-0.29688 0.19141-1.668 0.34766-2.957 0.52734-4.5195-2.418-0.66016-5.3203-1.457-8.2227-2.2461 0.003906-0.21094 0.011719-0.42188 0.011719-0.63281 0.77734-0.29297 1.5391-0.58203 2.5742-0.97266-0.63281-0.80469-1.3008-1.5859-1.9102-2.4141-1.0703-1.457-1.0547-1.4727-0.29688-2.8828 0.25781 0.60547 0.49219 1.1484 0.72266 1.6914 0.20703-0.19141 0.41406-0.37891 0.62109-0.58203-0.4375-1.3203 1.3438-3.9688-2.0234-3.3359-0.32422-1.0625-0.6875-1.9609-0.82813-2.8828-0.066406-0.40234 0.33984-0.87891 0.51953-1.3164 0.19531 0.33984 0.375 0.68359 0.57031 1.0234 0.26953 0.47656 0.54297 0.95312 0.86719 1.5469v-6.8281c0.55859 0.23438 1.1406 0.46875 2.2188 0.90234-0.58984-0.55469-0.85547-0.70703-0.99219-0.94141-0.83984-1.4883-1.6562-2.9922-2.4648-4.4922-0.027343-0.039063 0.011719-0.11719 0.035157-0.21094 0.34766-0.085937 0.70703-0.16797 1.0586-0.24609-0.39062-1.1094-0.75-2.0781-1.0938-3.0508 0.58203-0.32031 1.125-0.61719 1.8086-0.99219-0.58203-0.67578-1.1133-1.3008-1.5508-1.8086 0.34766-0.32031 0.71875-0.66016 1.082-1.0039-0.34766-0.3125-0.63672-0.72266-1.0469-0.93359-0.85547-0.44922-1.7734-0.79688-2.625-1.1641 0.11719-0.85156 0.21094-1.5117 0.25391-1.7695-1.4883-0.98438-2.7227-1.8047-4.1055-2.7109-0.023438-0.21875-0.085938-0.71094-0.11719-1.082 0.67578-0.33984 1.3086-0.65625 1.9531-0.96875h-0.011718c-1.8242-3.125-3.793-6.0977-7.3242-7.5586-0.011719 0-0.023438-0.003907-0.035157-0.011719 0.003907 0.003906 0.011719 0.015625 0.011719 0.027344-0.027343-0.003906-0.050781-0.015625-0.074219-0.023438-0.55469 1.0703 0.99609 3.0117-1.5508 3.2695-0.24609-1.7812-3.8242-0.011719-3.1367-2.9414 0.50781 0.30078 1.1523 0.68359 1.793 1.0586 0.12891-0.23438 0.26953-0.46875 0.40234-0.70703-1.0938-0.69922-2.1953-1.3984-3.2891-2.1016 0.074219-0.125 0.14063-0.24219 0.20703-0.35938 1.8555 0.59375 3.707 1.1797 5.5664 1.7734 0-0.011719 0-0.015625 0.011719-0.027344 0.015625 0.003906 0.035156 0.011719 0.050781 0.023438-0.0625-0.21875-0.11719-0.4375-0.22266-0.77734 1.0469 0.46484 1.9805 0.87891 2.9219 1.2891-0.80469-1.4102-3.1484-1.5352-2.7383-4.0664 0.51562 0.76562 0.78906 1.5078 1.3086 1.8945 1.2383 0.91406 1.2617 0.085938 1.0586-0.85156h1.7422 0.003907 0.003906s-0.003906 0-0.011719-0.003907h-0.011718c-0.52734-0.75781-1.0547-1.5078-1.5859-2.2617 0 0 0.042969-0.011719 0.050781-0.011719h0.003907c-0.3125-0.074219-0.71875-0.074219-0.99219-0.18359-0.10156-0.035156-0.17188-0.085937-0.22266-0.14453-1.0234-1.2266-1.9414-2.5352-2.957-3.8906 0.40234-0.22266 0.83984-0.44922 1.6758-0.90234-1.9648-0.32422-3.5742-0.58203-3.7109-2.6094-1.2109-0.76562-2.4297-1.5234-3.6289-2.2852-0.21875 0.15234-0.4375 0.30859-0.62891 0.44141-0.81641-0.93359-1.6289-1.8711-2.4883-2.8438 1.3828 0.3125 2.6211 0.59375 3.8516 0.86719-0.085937-0.55859-0.16406-1.125-0.25781-1.7305 0.66016-0.078125 1.1367-0.125 1.6016-0.17969-1.8438-1.457-3.6523-2.8789-5.4609-4.3047 0.11719-0.17969 0.23047-0.35938 0.34766-0.54297 0.62891 0.11328 1.2617 0.23047 1.9883 0.35938-0.47656-0.55859-0.86328-1.0039-1.5273-1.7734 1.7305 0.72266 4.2734 0.18359 6.4961-1.1094-0.47656-0.125-0.89453-0.24609-1.7305-0.46484 3.5-0.41406 5.207-2.8633 3.8203-5.0508-0.42578 0.66016-0.72656 1.3906-1.2539 1.8828-0.92578 0.86328-1.8828 1.9023-3.0117 2.2773-2.5664 0.83594-4.0781-1.6445-6.1641-2.3984-0.14062-0.050782-0.22266-0.29688-0.30859-0.46484-0.48047-0.96484-0.96875-1.9258-1.4102-2.9062-0.17969-0.40234-0.34766-0.85156-0.35938-1.2812-0.042968-1.5586-0.015625-3.1094-0.015625-4.6641-0.24219 0.011719-0.46875 0.011719-0.71094 0.015625v5.668c-0.11328 0.015625-0.21875 0.039063-0.33203 0.066406-0.18359-0.375-0.37109-0.74609-0.55469-1.1133 0.65625 2.5039-1.3008 4.3398-1.5664 6.5742-0.28125 2.2305-0.67188 4.4336-1.0703 7.0664-0.63672-0.67578-0.80469-0.85547-1.0586-1.1328 0.45313 1.5195 0.86328 2.8945 1.1914 3.9805-0.33984 0.59375-0.57812 1.5-0.92578 1.5508-1.9766 0.24609-1.3281 3.2266-3.4609 3.1875 0.050781 0.35938 0.023438 0.76172 0.17188 1.0742 0.23438 0.48047 0.59375 0.91406 0.83984 1.2695-0.19141 0.66797-1.6797 0.45313-0.53906 1.7188 1.0078 1.1211-0.15234 3.1289-1.6172 3.4336 0.49219 1.668 0.98438 3.3359 1.4844 5.0117-0.11719 0.035156-0.24219 0.074219-0.35938 0.10156-0.60547-1.3438-1.2109-2.6953-1.8203-4.0586h-1.6016c0.37891 1.6406 0.75 3.2422 1.1133 4.832 0.46094-0.054687 0.82812-0.10156 1.2148-0.15234-0.125 0.41406-0.12891 0.95703-0.40234 1.2148-1.1875 1.0977-1.0547 2.1016-0.039063 3.2148 0.3125 0.34766 0.375 0.92578 0.54688 1.3945-1.6758-1.5977-4.543-2.6953-2.5703-6.1953-0.82422 0.19141-1.6055 0.36328-2.2227 0.5-0.46484-0.59375-0.96484-1.2305-1.7461-2.2383-0.26172 2.6367 0.23047 4.1562 2.6133 4.5742-0.42578 0.10547-0.84375 0.20703-1.2266 0.30078v2.9727c-0.73438-0.81641-1.2031-1.3438-1.668-1.8633-0.32031 0.72656-0.19531 1.4219-0.19531 2.1172 0.003907 0.46094-0.015624 1.0352-0.28125 1.332-0.16406 0.18359-0.85156 0.0625-1.2148-0.11328-0.62891-0.30859-1.1914-0.75781-2.0273-1.3047 0.32031 1.0938 0.51953 1.7852 0.72266 2.4766-0.17188 0.054687-0.34766 0.10156-0.51562 0.15625-0.28516-0.38672-0.56641-0.77344-0.97266-1.3164-0.39062 1.0547-0.69922 1.8633-0.96875 2.5664-0.86719-0.47656-1.7656-0.96875-2.7891-1.5352 0.37891 1.9023 0.37891 1.9023-0.53125 2.2617 0.53906 1.2266 1.0742 2.4531 1.6172 3.6836-0.12891 0.074219-0.26172 0.14453-0.38672 0.21875-0.20312-0.28516-0.39844-0.57812-0.76172-1.0859v1.25c-0.11719 0.039063-0.24609 0.085938-0.36328 0.125-0.20312-0.38672-0.38672-0.77734-0.58203-1.1641-0.4375 0.23438-0.86719 0.47656-1.3594 0.74609-0.54297-1.1133-1.0703-2.2305-1.8125-3.7812-0.19141 0.96484-0.25391 1.3008-0.42188 2.207-1.9805-5.1367-5.6289-8.3281-8.9766-11.77-1.6875 1.0547-1.8242-0.76172-2.4414-1.7656-0.14453 0.11719-0.30078 0.23047-0.45312 0.33984 0.39062 0.73438 0.78906 1.4688 1.4297 2.6445-1.332-1.0039-2.2578-1.707-3.3672-2.543-0.09375 1.0859-0.16797 2.0508-0.26953 3.2578-2.4688-1.5586-4.6797-2.9453-7-4.4023-0.32422 2.3086 1.7812 2.9023 2.4883 4.4648-0.53906-0.29688-1.0586-0.59375-1.5898-0.89063 0.51562 1.293 1.0039 2.5156 1.4844 3.7344-0.73437-0.32031-1.0078-1.0742-1.4219-1.1602-1.1914-0.25391-1.293-1.1523-1.5-2.0156-0.46484-1.9727-0.71094-2.0664-2.4141-0.75-0.41406-0.34766-0.83594-0.69922-1.2617-1.0547-0.015625 0.13281-0.027344 0.26953-0.042968 0.40234h-2.9297c-0.30078 1.4062-1.4727 0.59375-1.8711-0.011718-0.86719-1.3008-2.082-0.76172-3.1289-0.89453-0.91406-0.11328-1.875 0.14063-3.1797 0.27344-1.0469 0.35156-2.5078 0.86328-4.3398 1.4844 0.70703 0.37891 0.99219 0.53906 1.5859 0.85547-1.1094 0.0625-1.9102 0.09375-2.6992 0.15234-1.082 0.085937-2.1719 0.19531-3.2656 0.29687-1.8438-0.21094-3.6797-0.42187-5.7969-0.66797 0.61719 1.2031 1.1211 2.1914 1.6172 3.1758-1.0938-0.41406-2.1953-0.82812-3.2539-1.2266-0.085938 0.96875-0.15234 1.7695-0.22266 2.6094-0.98047-0.48047-1.9648-1.1367-1.9727 0.39062-1.1016 0.85547-2.0625 1.6055-3.0703 2.3867 0.50391 0.42969 1.0547 0.90234 1.7969 1.5234-1.4297 0.054687-2.793-1.1367-3.5391 0.89062-0.66016-0.71094-1.2812-1.3828-1.7852-1.9336-0.8125 0.34766-1.6367 0.69922-2.457 1.0547 0.11719 0.054687 0.22266 0.11328 0.33984 0.16797-0.34766 0.48047-0.69531 0.95312-0.99219 1.3594-0.75-0.90625-1.3555-2.2852-2.0234-2.3125-0.94531-0.035156-1.9375 0.92578-3.0742 1.5469 0.46875-0.62109 0.82422-1.1016 1.1875-1.5781h-0.44922c-0.24219-1.2695-0.48047-2.5469-0.72656-3.8516 0.34766-0.23047 0.73437-0.48047 1.125-0.73828-0.035157-0.078126-0.078126-0.15234-0.11719-0.23438-1.0312 0.37109-2.0508 0.73828-3.1211 1.1211 0.15625-2.75-1.043-3.7812-3.2383-2.9609-0.12891-1.875-1.9805-4.0312 1.2227-5.4414l-0.65625-0.38672c-2.4531 1.5195-4.9062 3.0391-7.2539 4.4961-0.33594-2.0625-1.9883-1.418-2.9727-1.5234-1.0938-0.125-2.2461 0.30859-2.9922 0.42969 0.87891-1.082 1.9375-2.3867 3.0781-3.8086-5.0273 1.3477-9.9688 2.6758-14.914 4.0039-0.13281-0.10547-0.27344-0.20703-0.41406-0.3125 0.34766-0.59375 0.67578-1.1797 1.0195-1.7656-1.4375-2.7539-4.7109-3.125-6.8438-1.9648-1.625 0.89062-3.3164 1.9023-4.5234 3.2656-2.8633 3.2148-5.4492 6.6758-8.1484 10.031-0.33203 0.41016-0.72656 0.76172-1.082 1.1484-0.09375-0.10156-0.18359-0.18359-0.27344-0.27344 0.50391-1.1367 1.0195-2.2852 1.5352-3.4219-0.20312-0.078125-0.39062-0.15625-0.58984-0.23438-0.82812 1.6172-1.6641 3.2383-2.4883 4.8555l0.039062-0.027344c0.003907 0 0.011719-0.003906 0.011719-0.003906-0.003906 0.011719-0.011719 0.027344-0.011719 0.042969 0.46484 0.10156 0.93359 0.20312 1.4062 0.30078-0.17187 0.55469-0.33203 1.1133-0.53125 1.6523-0.24219 0.63672-0.53125 1.2617-0.79687 1.8828-0.39844-0.28125-0.78906-0.55859-1.1875-0.83984 0.36328-0.99609 0.73437-1.9922 1.1016-2.9922-0.015625-0.003906-0.027344-0.003906-0.039062-0.003906-0.98438 0.79688-1.9805 1.5898-3.4102 2.7617 0.34766-2.2578 0.62109-4.0703 0.85547-5.6094-0.73828 0.80078-1.6172 1.7461-2.5039 2.7031-0.13281-0.089843-0.28125-0.17187-0.41406-0.25781 0.14062-0.81641 0.29297-1.625 0.4375-2.4375 0.11719-0.027344 0.24609-0.050781 0.37109-0.085938 0.10156 0.30859 0.20703 0.61719 0.3125 0.92578 0.14062-0.26953 0.29688-0.54297 0.4375-0.81641-0.4375-0.085938-1.2148-0.33984-1.2656-0.23438-0.50781 1.043-1.0195 2.1094-1.2812 3.2383-0.19531 0.82422-0.039062 1.7344-0.039062 2.6055-0.21875-0.011718-0.4375-0.011718-0.64844-0.023437v-4.457c-0.46484 0.09375-0.96875 0.19531-1.5195 0.30859 0.24609-0.96484 0.46875-1.8203 0.68359-2.6836-0.22266-0.074219-0.44141-0.14062-0.67187-0.20703-0.38672 1.0938-0.77344 2.1953-1.1523 3.2891-0.30859-0.95703-0.23438-1.8633-0.023438-2.7422 0.22266-0.90625 0.59375-1.7734 0.89453-2.6641-0.75 0.66797-1.3438 1.4609-1.6133 2.3594-0.26172 0.88672-0.19141 1.8711-0.26172 2.7227-0.94141-0.42969-1.6367-0.75-1.832-0.83984 0.22266-1.3828 0.41406-2.6211 0.57031-3.5859-1.1523 0.42969-2.082 0.77734-3.0117 1.1328-0.14062-0.57813-0.28516-1.1406-0.42578-1.7188-0.21094 0.039062-0.42969 0.085937-0.64453 0.125-0.023438-1.5508-0.17188-3.0781-0.23438-4.7812-0.44141 0.78906-0.87891 1.5742-1.2266 2.1914h-1.9414c2.6836 1.1328-0.45312 2.1172-0.16406 3.0898-0.11719-0.56641-0.23047-1.1328-0.34766-1.6914-0.20703 0.26172-0.39062 0.50781-0.58984 0.76562-0.22266-0.71094-0.24219-1.6562-0.59766-1.8125-2.5312-1.0742-2.207-3.7812-3.0703-5.668-0.60937-1.3477-0.94531-2.5078-1.9492-2.8633-1.1719-4.1875-2.2578-8.0586-3.3984-12.105-0.085937 0.89453-0.14453 1.6289-0.21094 2.3594-0.125 0-0.25391 0-0.37109-0.003906-0.54297-3.5039-1.0625-7.0117-1.5625-10.238-0.86328-0.42969-1.6797-0.83984-2.4922-1.25 0.18359-0.11719 0.37109-0.23438 0.55859-0.35156-0.11719-0.54687-0.14453-1.1328-0.36328-1.6367-0.52734-1.25-1.2227-2.4375-1.7031-3.7031-0.41016-1.0938-0.42188-2.3633-0.94531-3.375-1.0352-1.9805-0.76172-3.9922-0.87891-6.4727 1.25 1.1875 2.1328 2.0234 3.1523 2.9922-0.82422-1.7422-1.5625-3.3672-2.3984-4.9375-0.11719-0.22266-0.66016-0.21875-1.1211-0.34766-0.48828 1.0547-1.3047 2.0391-1.3047 3.0234 0 1.6445 0.32031 3.3711 0.875 4.918 1.0586 2.9336 1.1602 2.957-0.91406 4.4297 0.48828 2.8008 0.93359 5.3867 1.3906 7.9805-0.76562 0-1.2695-0.14453-1.6016 0.027344-0.29688 0.15625-0.55859 0.29688-0.78906 0.41016-0.6875 0.34766-1.1016 0.50391-1.4609 0.42188-0.46875-0.11719-0.81641-0.66797-1.5195-1.7695-0.26172 0.21875-0.51562 0.42969-0.85156 0.71875-0.10156-0.62109-0.16406-1.0625-0.25781-1.6758-1.9727 3.3711-1.8203 5.0391 0 6.9258-1.8828 1.3281-0.10156 1.332 0.57812 1.5586v1.1641c0.92969-0.62109 1.9258-1.293 2.9219-1.9648 0.125 0.16406 0.25781 0.33203 0.37891 0.5-0.81641 1.0586-2.6758 1.5391-2.0664 3.3828 0.015625 0.035156 0.015625 0.066406 0.027344 0.10547 0.30078-0.33594 0.60547-0.67578 0.91406-1.0117 0.49219-0.55469 0.99609-1.125 1.5273-1.7188 0.09375 0.94141 0.16797 1.7305 0.27344 2.7812h-1.8711c-1.0078 1.25-2.1953 2.7148-3.4258 4.2617 0.54687-0.10156 1.0078-0.18359 1.7461-0.32422-0.51953 0.73438-0.85156 1.2148-1.1914 1.6875 0.37109 0.11328 0.68359 0.20312 1.5195 0.44141-3.0117 1.0859-5.5312 1.9922-8.1602 2.9336 0.57812 0.042969 1.043 0.074219 1.9609 0.14453-0.99609 0.75781-1.6289 1.2305-2.1836 1.6445 0.0625 0.25781 0.0625 0.36328 0.085937 0.37109 0.28516 0.074219 0.56641 0.125 0.84375 0.17969-0.90625 3.1797-0.90625 3.1797-4.2383 5.6914 1.2539 0.59375 2.3672 1.1328 3.5742 1.707 0.14453 1.3203-2.1289 2.7539-0.21875 3.9688-1.4883 1.4688-0.15234 3.4219-0.95703 4.8672 0.23437-0.48828 0.46484-0.97266 0.74609-1.5586 0.5 0.19531 0.89453 0.34766 1.6875 0.66016-0.59375-0.81641-0.92969-1.2773-1.5078-2.0703 1.0234-0.0625 1.7305-0.09375 2.7656-0.15234-0.25781 1.0039-0.45312 1.7539-0.64844 2.4961 0.33203 0.19531 0.6875 0.40234 0.81641 0.48047-0.41406 0.90625-0.75 1.6289-1.082 2.3477-0.14062 0.035156-0.28516 0.074219-0.42578 0.11328-0.09375-0.94141-0.19141-1.8867-0.33203-3.2891-0.25781 1.2148-0.44922 2.0117-0.57812 2.8164-0.085938 0.52734-0.28516 1.2812-0.035156 1.5391 0.32031 0.3125 1.0547 0.21875 1.6289 0.30078-0.003906 0.074218-0.027344 0.25781-0.027344 0.44922-0.011719 2.1602-0.14453 2.2305-2.2773 1.875-0.5-0.089844-1.2812 0.10547-1.5586 0.46484-0.78906 1.0352-1.3711 2.2109-2.0273 3.3359-0.078125 0.12891-0.054688 0.32031-0.10547 0.60937 0.62109-0.12891 1.1211-0.23437 1.9492-0.41016-0.71875 1.418-1.1992 2.6055-1.875 3.668-0.91406 1.4375-0.58203 2.2383 1.3398 3.7031 0.75781 2.8906 1.6523 5.4023-0.29687 7.6211 1.3477-0.0625 2.4062-0.11328 3.4375-0.16406-0.054688 0.46094-0.11328 0.91797-0.16406 1.4297-1.0117-0.078125-1.9727-0.15234-2.8047-0.21875-0.12891 0.35938-0.14063 0.72266-0.33203 0.90234-1.3672 1.3281-1.8125 2.832-1.1367 4.6641 0.16406 0.44141 0.023437 0.98438 0.023437 1.4844-0.14453-0.003906-0.30078-0.015625-0.45312-0.027344v-1.8594c-0.11328-0.050781-0.23438-0.10156-0.34766-0.14453-0.61719 0.89453-1.2305 1.7812-1.8125 2.6328 3.0625 2.1953 0.77734 5.2344 1.8477 7.75 0.81641-0.27344 1.6406-0.55469 2.6367-0.89062-0.67188 1.2227-1.1797 2.25-1.7852 3.207-0.61719 0.98047-1.332 1.8945-2.0312 2.8789 1.4688-0.17188 2.8711-0.33984 4.6875-0.55859-1.8359 0.90234-3.1992 1.5664-4.5586 2.2344 0.77734-0.085937 1.5469-0.16797 2.7227-0.29297-0.70703 0.60547-1.1406 0.96875-1.7656 1.4961 0.53906 0.23438 0.95312 0.42578 1.4609 0.64844-0.21094 0.18359-0.39844 0.46875-0.55469 0.46094-0.97266-0.089844-1.9375-0.25391-2.9062-0.38672 0.57031 1.0469 1.125 2.1016 1.7305 3.2148-0.83984 0.53906-1.8047 1.1602-2.9062 1.8711 0.56641 0.35156 0.95703 0.59766 1.2109 0.76172-0.46094 0.73828-0.85547 1.3984-1.293 2.0898 0.65625 0.51953 1.1875 0.93359 1.8203 1.4336-0.98438 1.0352-0.67578 3.4648-3.2031 2.6367 0.32031 0.82812 0.63281 1.668 0.96484 2.5312-0.78906 0.10156-1.4336 0.17969-2.1523 0.27344-0.67188-1.3477 0.44922-1.9805 1.1211-2.7773-0.37109-0.22266-0.75-0.4375-1.2109-0.69922-0.33984 0.47656-0.69531 0.97266-1.2109 1.707-0.41016-1.3008-0.72266-2.3125-1.043-3.3281-0.25781 0.11719-0.51953 0.23438-0.77734 0.34766 0.61719 1.457 1.2305 2.9023 1.793 4.2188-0.64844 0.20312-1.3008 0.39844-1.793 0.55469 0.46484 0.51953 1.0117 0.875 0.99219 1.1797-0.039063 0.44141-0.49219 0.84375-0.63281 1.0586 1.0312 1.0977 2.043 2.2578 3.1523 3.332 0.51562 0.5 1.1641 1.0234 1.8359 1.1523 0.95312 0.19531 1.9805 0.050781 2.9805 0.050781 0.042969 0.14453 0.09375 0.29297 0.13281 0.44141-2.4961 0.48047-1.6133 2.375-1.7852 3.9609-0.82422-0.17188-1.6367-0.33984-2.6602-0.54688l1.2266 2.6484-3.8242-1.1602 0.11719 2.8672c0.48828-0.20312 0.98437-0.41016 1.3164-0.54297 0.72266 0.51562 1.3164 0.94141 1.9258 1.3711-0.55469 1.7148-1.9766 1.5664-3.3828 1.8477-2.1719 0.42578-1.3906-2.1406-2.7656-2.3359-0.375 0.30859-0.75 0.60938-1.3594 1.1016 0.81641 0.98047 1.5781 1.8867 2.3477 2.793 0.0625 0.074219 0.125 0.14453 0.18359 0.21875 0 0-0.003906-0.003906-0.011718-0.011719l0.011718 0.003906c0.011719 0.003907 0.027344 0.027344 0.050782 0.035157 0.81641-0.28516 1.6289-0.57031 2.5703-0.90625 0.20703 0.60547 0.37891 1.1094 0.57031 1.6758-0.65625 0.14062-1.2383 0.26953-1.7461 0.37891-0.5-0.41016-0.95312-0.77734-1.3984-1.1523-0.011719 0-0.015626 0.003907-0.023438 0.003907-0.003906-0.011719-0.011719-0.023438-0.023438-0.035157 0.20313 0.53906 0.41406 1.082 0.46094 1.1914 0.77344 0.51953 1.6562 0.79688 1.7461 1.2305 0.24219 1.1914 0.054687 2.4453 1.7305 2.7891 0.33203 0.066406 0.54297 0.83594 0.73438 1.3047 0.027343 0.074218-0.33203 0.38672-0.54297 0.44922-0.14062 0.039063-0.39844-0.16406-0.50781-0.32031-0.25391-0.35938-0.44922-0.75-0.66797-1.1367-0.66016 0.44922-1.3164 0.90625-2.1016 1.4375 0.60938-0.039063 1.0586-0.074219 1.3164-0.085937 0.42969 2.6719-1.6133 5.0898-0.11719 7.668 0.035156 0.0625-0.042969 0.19531-0.074219 0.29688 0.53125-0.59766 0.60938-1.3203 0.89062-1.9531 0.57031-1.2695 0.61719-1.25 1.9023-0.91797-0.32422 0.51562-0.65625 1.0547-0.98438 1.5859 0.074219 0.039063 0.14062 0.085937 0.21875 0.125 0.22266-0.29688 0.44922-0.58984 0.95312-1.2773 0.19141 0.88672 0.26172 1.418 0.41406 1.9219 0.066406 0.20312 0.28516 0.42969 0.47656 0.49219 0.15234 0.039062 0.375-0.16406 0.56641-0.25781 0.375-0.20312 0.75-0.41016 1.1328-0.60547 0.0625 0.10156 0.125 0.20313 0.17969 0.30078-0.16406 0.20703-0.32422 0.41016-0.63672 0.80078h1.8359c0.039062 0.11719 0.09375 0.23047 0.13281 0.34766-1.5117 0.94531-3.0195 1.8984-4.5195 2.832 1.3945 0.57813 2.3359-0.17187 3.2305-1.2656 0.37109 0.18359 0.75781 0.37891 1.2227 0.61719-0.32031 0.36328-0.55469 0.62891-0.91406 1.043 0.55469 0.089844 0.90234 0.14453 1.3594 0.22266-0.10547 0.85156-0.21875 1.7188-0.33984 2.6875 2.1797-1.0352 1.1133 1.8477 2.2383 2.0508 0.17969-0.86328 0.34766-1.625 0.56641-2.6367 1.6914 1.6758 1.6367 1.9531-0.3125 3.8867 0.23438 0.3125 0.46484 0.60547 0.67578 0.92578 0.20312 0.30859 0.37891 0.63672 0.78906 1.3398-0.18359-1.1797-0.30078-1.8984-0.41016-2.6133 0.10547-0.027344 0.21094-0.0625 0.32031-0.09375 0.67188 0.72266 1.3438 1.4453 2.168 2.3242 0.35938-0.29297 0.81641-0.66797 1.3672-1.1094 0.63672 1.7656-1.3984 1.5352-2.2578 2.7031 1.043-0.25781 1.6953-0.42188 2.3906-0.59766 0.44141 0.97266 0.89062 1.9648 1.457 3.2188-0.57031-0.11328-1.0586-0.20313-1.2891-0.24219-0.61719 0.58984-1.2227 1.1602-1.8086 1.7305 2.0117-0.65625 2.6445 1.2422 3.8125 2.168 0.015625 0.011718 0.027344 0.015624 0.039062 0.035156 0.066407 0.042968 0.12891 0.085937 0.20313 0.12891 0.015624 0.015625 0.050781 0.035156 0.066406 0.042969 0.09375 0.054687 0.19531 0.10156 0.29297 0.14062-0.023437 2.4141 0.46484 2.8281 2.8633 2.4258 0.57812-0.09375 1.1602-0.089844 2.207-0.15625-0.84375 0.5-1.2812 0.75781-1.8438 1.0938 1.4961 0.22266 2.832 0.32422 4.1094 0.65625 0.55859 0.14062 0.99609 0.76172 1.4844 1.1641-0.33203 0.26172-0.66016 0.51953-0.94141 0.73828 0 0.39062 0.125 0.90625-0.027344 1.3203-0.16406 0.42578-0.58203 0.76172-0.89062 1.1367 0.10547 0.078125 0.20312 0.15625 0.29688 0.23047 1.1094-1.3906 2.2188-2.7773 3.4961-4.3867 0.20703 0.54688 0.71875 1.2617 0.53906 1.5781-0.39062 0.71094-1.1484 1.2227-1.6953 1.7461 0.11719 0.015625 0.57031 0.074219 1.2266 0.15625-0.41406 0.37109-0.68359 0.60547-0.80469 0.71094 0.25781 0.49219 0.48828 0.94141 0.70703 1.3594-0.20703-2.2617 1.7812-1.082 2.7891-1.9531-0.16406 1.2422-0.28516 2.1445-0.4375 3.2656 0.91797-0.91797 1.5625-1.5625 2.3203-2.3242 0.39844 1.2539 0.66797 2.1172 1.1211 3.5547 0.85547-1.4883 1.5469-2.6875 2.168-3.7695 0.40234 0.39062 0.94531 0.91797 1.6172 1.5781-0.089844 0.57031-0.22266 1.418-0.35156 2.3086 0.56641-0.30859 1.25-0.46484 1.5742-0.89063 1.1758-1.5586 1.3711-0.14062 1.9883 0.48828-0.45313 0.027344-0.74609 0.050781-1.2031 0.085937 0.8125 0.69922 1.4375 1.2422 2.0781 1.7969-0.15625 0.10156-0.29297 0.19141-0.41016 0.28516-0.039062 0.027344-0.074219 0.054688-0.10156 0.089844-0.074219 0.0625-0.13281 0.11719-0.19141 0.17969-0.023437 0.035156-0.050781 0.0625-0.066406 0.089844-0.039062 0.054687-0.074218 0.11328-0.10156 0.16406-0.015625 0.027344-0.027344 0.054688-0.035156 0.085938-0.023438 0.050781-0.035157 0.10547-0.039063 0.15625v0.074218c0 0.054688 0 0.11328 0.011719 0.16406 0.003906 0.015625 0.011718 0.035156 0.015625 0.054687 0.015625 0.0625 0.042969 0.12891 0.085937 0.19531h0.003906c0.34766 0.59766 1.2695 1.125 1.082 1.8594 0.37109-0.66797 0.71875-1.3008 1.0547-1.8984 0.53125-0.96484 1.0352-1.8633 1.5586-2.8008 0.34766 0.56641 0.55469 0.90625 0.84375 1.3789 0.11719-0.68359 0.20312-1.1602 0.28125-1.6367 0.10156 0.011719 0.20312 0.027344 0.30859 0.035157 0.39062 0.92578 0.78516 1.8477 1.1719 2.7734 0.15625 0 0.32031 0.003906 0.46875 0.011719 0.14453-0.95703 0.27344-1.9219 0.4375-2.9805 0.24219 0.58203 0.45312 1.082 0.66016 1.5859 0.41016 1.043 2.6211 1.2617 1.3086 3.1367-0.51562 0.74609-0.60547 1.793-0.89062 2.6992-0.26172 0.074219-0.51953 0.14453-0.77734 0.22266 0.86719 0.77344 1.7344 1.5391 2.5703 2.2852v2.0938c0.55859-1.9336 2.1211-1.332 3.3867-1.4961 0 1.293-0.027344 2.5703 0.027344 3.8398 0.003906 0.20312 0.35938 0.55469 0.57031 0.56641 1.5273 0.054688 0.90234 1.0039 0.75781 1.4219 1.0977-0.27344 2.2617-0.5 3.375-0.86328 1.1484-0.375 1.1797 0.09375 0.96875 0.99219-0.19141 0.83594-0.29688 1.6875-0.44141 2.5352 0.11328 0.023437 0.22266 0.042968 0.33203 0.066406 0.25391-0.58203 0.50391-1.1719 0.98438-2.2852 0.39844 0.98047 0.60547 1.4961 0.69922 1.7148 0.59375-0.15234 1.2383-0.22266 1.8047-0.48828 0.6875-0.32422 1.3047-0.8125 1.9375-1.2148 3.6914 3.9492 3.5547 3.0859 5.4805 1.4688v1.8359c0.35938-0.19141 0.57031-0.25781 0.72656-0.38672 0.19531-0.15625 0.33984-0.36328 0.49219-0.53125-1.7422-2.0625-1.8086-3.1289-0.44141-4.6523 0.58984 0.91797 1.1875 1.8555 1.7969 2.8008 0.44922-0.39844 0.81641-0.72266 1.1992-1.0547 0.23437 0.44922 0.39844 0.72266 0.53125 1.0117 0.26172 0.55469 0.74609 1.125 0.71875 1.668-0.078126 1.5234 0.54687 2.1016 1.9727 1.5234 0.98047-0.39062 1.9492-0.8125 2.918-1.2227 0.039063 0.089844 0.078126 0.18359 0.125 0.27344-0.46484 0.41016-0.92969 0.81641-1.5742 1.3789 0.62891-0.11328 1.0195-0.17969 1.4844-0.25781-0.81641 2.4766-0.86328 3.0312-0.55469 3.2812 0.59375-0.81641 1.1797-1.6289 1.6758-2.3125 1.1406 0.47656 2.1094 0.87891 2.7773 1.1602 1.2148-0.29688-0.39844-2.4258 1.6641-1.7852 0.19141-0.69531 0.39062-1.3906 0.54688-1.9609 1.9219-0.3125 2.3672 0.61719 2.2227 2.1797 0.23047-0.65625 0.46484-1.3086 0.69922-1.9805 1.5195 1.0234 1.6406 1.2266 2.3086 3.0469 0.10156 0.26172 0.44141 0.55469 0.71875 0.62109 1.418 0.33594 2.3672 1.125 2.8398 2.5273 0.10156 0.28516 0.50781 0.46484 1.0195 0.89062-0.42578-0.83594-0.6875-1.3477-0.95313-1.8633 0.078126-0.054687 0.15234-0.11328 0.22266-0.16406 0.35156 0.25391 0.72266 0.5 1.2109 0.83984-0.33203-1.1328-0.58984-2.0508-0.86719-3.0234 0.79688 0.19141 1.6016 0.37891 2.3789 0.55859 0.20703 0.69531 0.41406 1.3594 0.53906 1.7656 0.60937 0 1.2891-0.19531 1.5 0.035156 0.69531 0.73828 1.2812 1.3789 2.25 1.9492 1.6172 0.94141 2.6836 2.8125 3.8984 4.1992 1.0039-0.28516 1.7422-0.50391 2.4688-0.71875-0.64453-0.33984-1.2891-0.67578-1.9375-1.0078-1.1797 0.37109-1.9141 0.33594-1.5195-1.293 0.15234-0.63672-0.65625-1.6758 0.46875-1.9023 0.92969-0.19531 2.1055-0.22266 2.9023 0.20312 1.0547 0.54688 1.832 0.96875 2.7812-0.085938-0.050782 0.3125-0.10156 0.62891-0.15234 0.94141 0.11719 0.69922 0.38672 1.418 0.3125 2.1016-0.17188 1.5234-0.21875 1.5625 1.3164 2.2773-0.93359-2.8164-0.875-3.875 0.37891-4.7305 0.027344 0.25781 0.089844 0.45312 0.0625 0.63672-0.17969 1.3281 1.0117 1.9141 1.5352 2.8633 1.4961-1.2422 1.5586 0.66016 2.3008 1.0586 0.48828 0.25781 0.94141 0.58203 1.8438 1.1484-0.33594-1.0703-0.5-1.6133-0.79688-2.5664 1.9336 1.5664 4.0312 2.2461 5.0469 4.5234 1.4336-1.5469-0.24219-3.2383 0.42578-5.0078 0.25391 0.58984 0.39844 1.0703 0.64453 1.4844 0.28125 0.45312 0.57812 0.96484 0.99609 1.2227 0.19141 0.11719 0.38672 0.21875 0.58984 0.3125 0.58203 0.28125 1.2031 0.50391 1.8047 0.76172-0.28516-0.62891-0.57812-1.2617-0.96875-2.1172 0.65625-0.11719 1.1875-0.36328 1.6562-0.26953 0.39062 0.078125 0.62109 0.042969 0.75-0.054687 0.011719-0.011719 0.015625-0.023438 0.027344-0.039063 0.023437-0.023437 0.054687-0.050781 0.066406-0.085937 0.011719-0.027344 0.015625-0.0625 0.015625-0.10156 0.011719-0.015625 0.015625-0.039062 0.015625-0.0625 0.003907-0.042968 0.003907-0.10156 0-0.15625v-0.039062c-0.003906-0.050782-0.015625-0.10156-0.023437-0.15625-0.003906-0.023438-0.003906-0.042969-0.011719-0.074219-0.003906-0.027344-0.011719-0.054687-0.015625-0.089844-0.011719-0.050781-0.015625-0.10156-0.035156-0.15234-0.41016-0.11719-0.82812-0.20313-1.2227-0.35156-0.44922-0.16797-0.85547-0.40234-1.2891-0.58203-0.55469-0.23047-1.1133-0.44141-1.6641-0.65625 0.12891-0.25391 0.25391-0.50391 0.37891-0.75781 1.2656 0.78516 2.5312 1.5625 3.7969 2.3477h0.003906c-0.011719-0.25781-0.035156-0.51563-0.050781-0.69922 0.96875 0.32422 1.9141 0.64453 2.8555 0.95312 0.52734 0.16797 1.1406 0.19531 1.5742 0.49219 1.0312 0.69922 1.9727 1.5352 2.9609 2.2969 0.039062 0.035156 0.15625-0.050781 0.26172-0.10156 0.003907 0 0.011719-0.011719 0.023438-0.011719-0.015625-0.015625-0.023438-0.035156-0.035156-0.050781 0.003906-0.003906 0.015625-0.015625 0.015625-0.023438-0.42188-1.0117-0.83594-2.0312-1.2617-3.0469 0.14062-0.050781 0.28125-0.10156 0.41016-0.15234 0.69922 0.53125 1.3906 1.0625 2.3125 1.7734-0.50391 0.49219-0.98047 0.95703-1.4609 1.4219 0.015625 0.023438 0.023437 0.039062 0.023437 0.066406 0 0 0 0.003906-0.003906 0.003906 0.34766 0.5 0.69922 1.0039 1.1328 1.6133 0.24219-0.82812 0.51563-1.7852 0.85156-2.9609 2.2188 1.4766 2.5273-0.20312 2.7422-2.3789 0.85547 1.2773 1.418 2.1094 2.207 3.293 0.074218-0.77344 0.09375-1.0586 0.15234-1.668 0.72266 0.46875 1.5273 0.69922 1.7969 1.2109 1.0859 2.1445 2.7148 3.3203 5.125 3.4062-1.2617-0.99219-2.5547-1.9336-3.7578-2.9805-0.42188-0.36328-0.61719-0.98047-0.96484-1.5586 2.9922-0.42578 5.957 1.3398 6.6797 3.9258 0.11328 0.39844-0.38672 0.96875-0.60547 1.4609 0.32031 0.48828 0.62109 0.96875 0.93359 1.4492 0.11719-0.066406 0.23438-0.11719 0.34766-0.18359v-1.8945c0.68359 0.36328 1.1719 0.62891 1.6641 0.89062-0.66016-1.4844-1.4727-2.793-2.418-3.9922-0.73438-0.92578-0.60938-1.6562 0.054687-2.4531 0.70703 0.41016 1.4336 0.67188 1.9492 1.1641 0.85547 0.8125 2.1797 1.7344 2.2188 2.6641 0.074219 1.8047 1.1328 1.0234 1.8594 1.0938 0.36328 0.035156 0.75781-0.20703 0.94141-0.26172-0.074218-1.3008-0.15234-2.5977-0.23438-3.9922-0.4375 0.83594-0.80078 1.5586-1.1641 2.2734-0.125-0.0625-0.25391-0.12891-0.38672-0.20312 0.22266-0.52734 0.53125-1.0469 0.64453-1.6055 0.13281-0.64453 0.09375-1.3203 0.125-1.8047 1.2266 0.42188 2.5938 0.56641 3.5039 1.2891 0.83594 0.67187 1.1758 1.9648 1.9648 3.3945 0.39062-1.3594 0.71094-2.4414 1.0586-3.6445 0.28125 0.50391 0.54688 0.99219 0.82422 1.4844 0.089844-0.023437 0.17969-0.050781 0.26172-0.074218-0.15625-0.61719-0.3125-1.2383-0.42969-1.707 0.57812-0.58203 1.1406-1.1602 1.707-1.7344h-0.003906c0.003906-0.015626 0.015625-0.027344 0.023438-0.050782-0.25391 0.042969-0.49219 0.085938-0.63281 0.10547-0.11328-1.3008-0.25391-2.5469-0.30078-3.7969-0.011719-0.27344 0.20703-0.69531 0.44141-0.8125 0.24609-0.11719 0.77734-0.078125 0.92578 0.10547 0.3125 0.38672 0.69922 0.95703 0.60938 1.3672-0.22266 1.043-0.67578 2.0273-1.043 3.0312h0.035156c-0.011719 0.015625-0.035156 0.035156-0.050782 0.050782 0.25391 0.023437 0.51563 0.050781 0.77734 0.066406 0.85547 0.085937 1.7578 0.16406 2.8516 0.26172-0.50391-1.7539-0.98438-3.3945-1.4102-4.8906 1.2812-0.33984 2.2305-0.59375 2.7617-0.73438 0.09375-1.0078 0.15234-1.6953 0.21875-2.3867 0.19141 0 0.375-0.003906 0.57031-0.011719 0.86328 2.2695 1.7422 4.5234 2.6094 6.7812 0.11328-0.039063 0.21875-0.085937 0.33203-0.125-0.054688-0.51562-0.10547-1.0312-0.16797-1.5859 0.48828 0.11328 0.85156 0.19531 1.2148 0.27344-0.62109-0.92578-1.1875-1.7461-1.8711-2.7773 3.2812-0.6875 2.8945 2.5469 4.9375 3.625-0.52734-0.90625-0.85156-1.457-1.3438-2.3125 0.67578 0.38672 1.0234 0.58984 1.4062 0.8125 0.39062-1.668 0.72266-3.1914 1.1484-4.6914 0.042969-0.14453 0.84375-0.29297 0.91406-0.17969 0.4375 0.64844 1.082 1.3828 1.0586 2.0781-0.039063 1.5977 0.83594 1.9883 2.2188 2.2188-0.15625-0.77344-0.29688-1.4492-0.4375-2.1211-0.39062 0.074219-0.6875 0.11719-1.2891 0.22266 0.32031-0.59375 0.51953-0.95312 0.71094-1.3203 0.57812 0.50391 1.1484 1.0117 2.0273 1.7812-0.39844-2.1094-0.73828-3.8984-1.082-5.6836 0.11719-0.015625 0.23438-0.035157 0.35938-0.054688 0.36328 0.86328 0.72656 1.7188 1.0742 2.5352 0.23438-0.26172 0.45312-0.48047 0.63281-0.6875 0.17969-0.20703 0.34766-0.37891 0.51562-0.55469 0.074218-0.50391 0.15234-1.0078 0.23047-1.5117 0.42188 0.25391 0.83984 0.50781 1.1367 0.6875 0.375-0.48047 0.71094-1.3281 1.1094-1.3594 1.2891-0.10156 2.6055 0.09375 3.5117 0.15625 0.32422-0.88672 0.57031-1.5742 0.91797-2.5156 0.85547 1.1875 1.5 2.0625 2.1211 2.9336 0.078124-0.039063 0.15234-0.085937 0.23047-0.12891-0.57031-0.98438-1.1406-1.9805-1.5664-2.7148 0.37891-0.55469 0.73828-1.0859 1.1133-1.625l-0.039062 0.039063v-0.003907s0 0.003907-0.003907 0.011719c-0.33203 0.21875-0.65625 0.42969-0.90625 0.59375-0.27344-1.0547-0.55859-2.1289-0.86328-3.3047 1.8711 0.23438 1.0742 1.9258 1.7695 2.7109 0-0.003906 0-0.003906 0.003907-0.003906 0.18359-0.95703 0.36328-1.9141 0.58984-3.0625 0.35938 0.75 0.64844 1.3477 0.95313 1.9766 0.99609-0.76172 1.2148-1.3164 0.0625-2.0273-0.49219-0.30859-0.72266-1.0469-1.0625-1.5977 0.089843-0.089844 0.17969-0.18359 0.26953-0.27344 1.082 0.66797 2.168 1.3203 3.2461 1.9883-0.33594-0.68359-0.84375-1.1406-1.3906-1.5508-0.5-0.37891-1.0352-0.71094-1.5469-1.0625 0.10547-0.15234 0.20703-0.29688 0.3125-0.44922 0.44922 0.22266 0.89453 0.44922 1.5977 0.80078-0.28125-0.67188-0.46094-1.0938-0.63281-1.5195 2.0273-0.41016 2.0273-0.41016 5.6836 4.0039-0.0625-1.0977 0.023438-2.0547-0.19531-2.9336-0.23047-0.86719-0.87891-1.7031 0.69922-1.6016v-1.5195c1.8438 0.39062 1.625 1.707 1.5898 2.6836 0.87891 0.66797 1.625 1.2305 2.3672 1.7969-0.074219-0.78516-0.40234-1.4883-0.73438-2.1953-0.23047-0.50391-0.5-1.0352 0.48828-0.81641-0.45312-0.36328-0.89453-0.72656-1.4219-1.1719 0.86719-0.82812 1.9375-0.75781 3.0703-0.23438l-0.074219-0.027344c1.4766-0.91406 0.36328 1.1484 1.1602 0.95312-0.10547-1.1602-0.21094-2.3906-0.34766-3.8906 1.7461 1.0469 1.7148 2.2461 1.3203 3.5938-0.17969 0.62891-0.25391 1.2812-0.35938 1.9336 0.91797-1.7422 1.8359-3.4844 2.7227-5.1758 0.4375 0.40234 1.0625 0.99219 1.6445 1.5234-0.15625-1.2422-0.32031-2.5078-0.47656-3.8242 2.1992-2.1445 3.4453-0.32422 4.5703 1.5625 0.45312-0.59766 0.76172-1.0039 1.1641-1.5273-1.6406-0.62891-1.6055-1.7422-0.48828-3.5859 0.57812 0.80469 1.0625 1.4844 1.5469 2.1602-0.066406 0.089844-0.13281 0.17969-0.19531 0.26953-0.47656-0.23437-0.94531-0.48047-1.6953-0.85547 0.97266 1.2656 1.7461 2.2617 2.5156 3.2578 0.078125-0.042968 0.15625-0.089844 0.23438-0.13281-0.19141-0.45312-0.375-0.90234-0.51562-1.2266 0.81641 0.14062 1.5625 0.26172 2.8281 0.48047-1.8945-1.3047-0.87891-2.2734-0.25391-3.4766 0.75781 1.3203 1.293 2.8047 3.0352 2.3281-0.46484-0.74609-0.94141-1.5195-1.418-2.3008 0.09375-0.10547 0.20312-0.21094 0.30078-0.32031 0.62891 0.35938 1.2539 0.71094 2 1.1406 0.054688-0.63672 0.10547-1.1484 0.15234-1.6523 0.19531 0.023438 0.39062 0.050781 0.59375 0.078125-0.35156 1.6172-0.69922 3.2305-1.0586 4.8477 0.37109-0.33984 0.37891-0.78516 0.57031-1.1211 0.86328-1.5195 0.59375-3.7461 2.9453-4.3867 0.37109-0.10156 0.64844-2.0625 0.57812-2.082-2.1602-0.78516 0.65625-2.0664-0.74609-2.9961 0.92578 0.039062 1.4102 0.0625 1.875 0.085937 0.11719 0.61719 0.20312 1.1211 0.28516 1.625 0.085937-0.003906 0.17188-0.003906 0.25781-0.003906 0.035156-0.37891 0.066406-0.76562 0.078125-0.86719 1.3398 0.29297 2.5977 0.55859 4.0586 0.86719-0.52734-1.043-0.86719-1.7266-1.293-2.5742 1.0117-0.14453 1.6875-0.24219 2.2773-0.33203-0.89453-0.21094-1.7422-0.41016-2.582-0.60938 0.035156-0.17969 0.074219-0.35938 0.11719-0.54297 1.8047-0.15625 3.6016-0.32031 5.4102-0.48047-0.50781-0.18359-1.0234-0.54297-1.5195-0.51953-0.98438 0.035157-1.1875-0.37891-0.93359-1.1914 0.12891-0.42188 0.35937-0.80469 0.55469-1.2109 0.19531 0.32031 0.33594 0.71875 0.61719 0.92969 0.61719 0.46094 1.3008 0.8125 1.9609 1.2109 0.71875-0.21094 1.4219-0.42969 2.5469-0.76172-1.2148-0.34766-2.1836-0.62109-3.1602-0.90625 0.035156-0.19141 0.074219-0.375 0.11328-0.57031 0.3125-0.074219 0.62891-0.15234 0.94141-0.23047 0.34766-0.085937 0.69922-0.16797 0.83594-0.20312-0.21875-0.71875-0.39062-1.2773-0.56641-1.8438-0.49219 0.44141-0.98438 0.89062-1.4766 1.332-0.09375-0.042969-0.19141-0.085938-0.28516-0.125 0.26172-0.77734 0.32422-1.7422 0.83594-2.2891 0.59766-0.64844 1.0742-0.10156 1.1523 0.67578 0.58203-0.22266 1.1602-0.46094 1.7422-0.65625 0.3125-0.11328 0.81641-0.027344 0.95312-0.22266 0.6875-0.94141 1.2305-1.9414 0.72266-3.1914-0.16797-0.39062-0.14453-0.86328-0.21094-1.293 0.12891-0.042968 0.25781-0.085937 0.38672-0.12891 0.28125 0.32422 0.54688 0.64453 0.82422 0.96484 0.12891-0.77734-0.18359-1.4375-0.20312-2.1094-0.023438-0.76562 0.11328-1.5781 0.41406-2.2695 0.074219-0.16406 1.1211 0.089843 1.707 0.18359 0.41406 0.074219 0.82422 0.20703 1.2539 0.32031 0.25781-1.9375-2.7344-1.2812-2.3359-3.5391 0.18359-1.0586-1.1719-2.3906-1.7969-3.5391 1.2305 0.80469 2.5156 1.3477 3.3828 2.2852 1.1133 1.1875 1.875 2.6953 2.8008 4.0586 0.14453 0.21094 0.30859 0.42188 0.60547 0.82812v-4.6328c-0.5-0.46484-1.082-0.98438-1.6562-1.5195 0.27344 0.93359-0.33984 0.97266-0.72266 0.5-0.72266-0.89062-1.2148-1.9648-1.8086-2.957 0.23438-0.16406 0.46875-0.32031 0.70703-0.47656 0.33984 0.47656 0.66797 0.95703 1.0352 1.418 0.23438 0.30078 0.51562 0.56641 0.78516 0.85156 0.17187-0.21094 0.3125-0.55859 0.52734-0.59766 1.3164-0.26953 1.1914-0.95312 0.41406-1.9883 1.1758-0.28125 2.2227-0.53906 3.2773-0.78906-1.1406-0.59766-2.2773-1.1914-3.4375-1.8047 0.042968 0.80469 0.089843 1.5625 0.13281 2.4141-0.99609-1.3906-1.8594-2.5703-2.7109-3.7539 0.27344 0.58203 0.54297 1.1602 0.8125 1.7344-0.085937 0.050781-0.16406 0.11328-0.24609 0.16406-0.94531-0.90625-1.8867-1.8086-2.7734-2.6484 0.66797-0.34766 1.2266-0.77734 1.8555-0.91797 0.33203-0.078126 0.78516 0.34766 1.1758 0.54687 0.86719 0.23438 1.7422 0.46875 2.9609 0.8125-0.40234-0.6875-0.62891-1.5273-1.1758-1.8867-0.80078-0.52734-1.8242-0.71875-3.0469-1.1602 0.50781-0.28125 0.62109-0.39063 0.6875-0.37109 2.9492 0.98047 5.8711 2.0195 8.8086 2.9961zm-125.98-100.87c1.2031 0.10156 2.4062 0.19141 3.6172 0.29297 0.46484 0.42188 0.93359 0.83594 1.3945 1.2617 0.050781 0.011718 0.09375 0.027343 0.12891 0.035156 0.015625 0.023437 0.039063 0.054687 0.054688 0.078125 0.62891 0.27344 1.4219 0.42969 1.7812 0.91406 0.59766 0.80078 0.87891 1.8359 0.94531 2.9844-0.90625-1.3008-1.8203-2.5938-2.7266-3.8906-0.035156-0.011719-0.066406-0.023437-0.09375-0.035156-0.035156-0.027344-0.0625-0.054687-0.09375-0.085937-0.21875-0.078126-0.5-0.17969-0.53125-0.12891-0.94531 1.5234-1.6289 0.32422-2.375-0.21094-0.72656-0.28516-1.4492-0.57031-2.1797-0.85156 0.027344-0.125 0.054688-0.24609 0.078125-0.36328zm-0.83984 1.8359m-7.1289 55.738c1.0547 1.1797 2.1016 2.3633 3.1523 3.5391-1.3711-0.88281-3.4336-1.1094-3.1523-3.5391zm22.281 3.0664c-1.9805-0.78906-3.9609-1.5742-5.9414-2.3633 0.003906-0.11719 0.011719-0.23438 0.023437-0.35938 1.1719 0.11719 2.4453-0.015625 3.4727 0.42188 1.0469 0.44922 1.832 1.4688 2.7344 2.2344-0.085938 0.023437-0.1875 0.042969-0.28906 0.066406zm23.738-33.285c-0.37109-0.46484-0.66797-0.82812-0.98047-1.2109-0.48828 0.4375-1.0234 0.91797-2.0273 1.8125 0.20703-1.0469 0.32031-1.6055 0.42578-2.168-0.015625 0-0.027343 0-0.042969 0.011719v-0.023437c-0.14062 0.039062-0.24609 0.09375-0.35156 0.15234-1.2227 0.58203-0.52734 1.8555-0.57812 2.7812-0.11719 1.9492 0 3.9102-0.050781 5.8672-0.003906 0.29688-0.35938 0.58984-0.57812 0.875-0.77734 1.0625-1.0547 2.0938 0.33203 3.1016-0.46484 0.34766-0.82812 0.62109-1.3203 0.98437 0.19141 0.36328 0.4375 0.84375 0.83984 1.6367 0.17969-0.59375 0.28516-0.91797 0.37891-1.2305 0.14062-0.039062 0.29297-0.085937 0.4375-0.125 0.14453 0.6875 0.30078 1.3789 0.41406 1.9219-0.64453 0.085937-1.5352 0.085937-1.5586 0.21875-0.12891 0.86719-0.0625 1.7695-0.0625 2.7539-0.56641-0.14062-1.3594-0.34766-2.3477-0.59375 0.11719 0.55469 0.21094 1.0039 0.33984 1.5664-0.33984 0.11328-0.71875 0.22266-1.1992 0.37109 1.9609 0.11328 1.5664 1.8047 2.0898 2.8828-0.76562-0.53125-1.6562-0.95312-2.2773-1.6172-0.90234-0.96875-1.4297-0.20703-2.0703 0.23438 1.668 0.63672 2.9961 1.6289 3.7539 3.2305-0.12891 0.17188-0.25781 0.34766-0.37891 0.50781-0.97266-0.72266-1.9492-1.4375-2.918-2.1602-0.24609 1.4219-1.3047 2.0508-1.9102 1.1133-0.17969-0.29297-0.078126-0.74609-0.18359-1.1016-0.085938-0.24609-0.29688-0.46094-0.8125-0.55859 0.13281 0.85547 0.37891 1.707 0.37109 2.5664-0.011719 0.73828-0.30078 1.4766-0.49219 2.3086-0.35938 0.69922-1.2617 1.625-1.1094 2.3359 0.19531 0.91797-0.58203 2.8828 1.6641 2.6367-0.83984 1.0078-0.83984 1.0078-2.5195-0.90234-0.24219 0.76562-0.4375 1.4062-0.69922 2.2188-1.2148-1.1211-2.375-2.1836-3.668-3.3828v1.9766c-1.2422-1.7188-2.4023-3.3086-3.5547-4.9062-0.15625 0.09375-0.32031 0.19141-0.48047 0.28516 0.42969 0.81641 0.85547 1.6289 1.3555 2.5977-0.29297 0.38672-0.68359 0.91797-1.082 1.4492 0.050781 0.089843 0.10156 0.17969 0.14453 0.26953 0.5-0.27344 1.0078-0.54688 1.6953-0.92969 0.85547 1.1602 1.7539 2.375 2.6562 3.5898-0.12891 0.089844-0.26172 0.18359-0.39062 0.26953-0.73828-0.82812-1.4727-1.6641-2.2305-2.5273-1.6797 0.74609-2.9609-0.27344-4.0664-1.2812-2.0664-1.9023-4.1602-0.95312-6.3555-0.46875-0.77734 0.16797-1.6758-0.21875-2.7031-0.37891 0.28125-0.77734 0.44922-1.25 0.66016-1.8555-0.85547-0.14063-1.5742-0.25391-2.3516-0.37891-0.19531 0.42969-0.39062 0.875-0.61719 1.3789-0.67188-0.15625-1.2617-0.30078-2.1406-0.50781 0.36328 0.52734 0.59375 0.85547 0.85547 1.2383-1.668 0.13281-4.4727-1.7266-5.3047-3.2461-0.71875-1.3047-1.6133-2.5156-2.4414-3.7695-0.13281 0.20703-0.28125 0.41016-0.42578 0.61719-0.60547 0.23047-1.2227 0.46094-2.0312 0.75781-0.37891-0.57031-0.92578-1.3906-1.4961-2.2383-0.11328 0.38672-0.20703 0.72656-0.32422 1.1133-0.41016-0.66797-0.79687-1.2695-1.4492-2.3242-0.050782 0.46094-0.089844 0.82813-0.11719 1.1719-0.023437 0.18359-0.039062 0.35937-0.054687 0.51562-0.042969 0.42188-0.085938 0.77734-0.11719 1.1328 0.011719 0.015625 0.027344 0.035156 0.042969 0.050781l-0.050781 0.050782c2.9297 0.19531 2.9727 0.28125 1.4453 3.1367-0.4375-0.65625-0.83594-1.2617-1.2891-1.9336-0.42188 0.28516-0.85156 0.58203-1.3398 0.91406-0.15625-0.28516-0.30859-0.55469-0.45312-0.81641 0.57031-0.45312 1.1016-0.87891 1.6406-1.3047 0-0.027343 0.003906-0.0625 0.003906-0.089843-0.58203-0.75781-1.1602-1.5195-1.7656-2.3203-0.60938 1.3672-1.3438 2.9844-2.2773 5.0742-0.53906-0.99219-0.73437-1.3477-0.92969-1.707-0.17188 0.054688-0.34766 0.11328-0.51953 0.17188 0.18359 0.56641 0.36328 1.1328 0.56641 1.7461-0.52734 0.19141-1.1406 0.41406-1.7461 0.63672 0.003906 0.10547 0.003906 0.21094 0.003906 0.32031 0.4375 0.027344 0.87891 0.054688 1.3008 0.085938 0.11328 0.96875-3.0742 1.4492-4.9297 0.66797-0.089844 2.0508-1.1641 2.3242-2.8789 1.4688 0.027344-0.47656 0.0625-1.0039 0.09375-1.5195-0.089844-0.011719-0.17969-0.027344-0.26953-0.042969-0.39844 1.4883-0.80078 2.9727-1.1992 4.5039 0.11328 0.015625 0.55859 0.078125 1.1133 0.15625-3.6328 2.3633-7.582 1.8477-11.43 1.8594-0.09375-0.87891-0.18359-1.7695-0.25781-2.4805-0.99609-0.11719-1.7695-0.23438-2.5547-0.28516-0.62891-0.039063-1.5898 0.28516-1.8477-0.015625-0.83984-1.0234-3.0859 0.19531-3.1211-2.0156-0.003906-0.17188-0.60547-0.33984-1.082-0.59766 0.46484-0.23047 0.81641-0.4375 1.1875-0.57812 0.33594-0.12891 0.69531-0.20312 1.1133-0.5-2.9336 0.87891-5.3984 0.55859-6.8594-2.4766 0.42188-0.10547 0.86719-0.21875 1.1992-0.29688 0-1.6562-0.054688-3.2031 0.039062-4.7305 0.023438-0.33203 0.58203-0.59375 0.82812-0.94141 0.58203-0.83594 1.1328-1.7031 1.7031-2.5547-0.09375-0.089844-0.18359-0.18359-0.27344-0.27344-0.72266 0.14062-1.4375 0.34766-2.168 0.39844-0.59375 0.035156-1.1992-0.11328-1.793-0.17188 0.003906-0.15234 0.003906-0.30859 0.003906-0.46094 0.3125-0.125 0.63281-0.24609 0.94531-0.37109-0.015625-0.089844-0.035156-0.17969-0.054688-0.27344h-2.0938c1.2656-1.6953 2.2305-2.9922 3.1797-4.2656-0.24609 0.09375-0.58984 0.23438-1.2773 0.50781 0.20312-0.75781 0.4375-1.293 0.47656-1.8477 0.050782-0.71875 0.027344-1.457-0.11328-2.1562-0.23047-1.2227-0.56641-2.418-0.85547-3.6172 0.17969-0.039063 0.35156-0.078125 0.53906-0.11719-0.80469-0.30078-1.6133-0.59766-2.457-0.91406 0.78906-1.2227 2.9727 0.16406 2.832-1.7539-0.10547-1.5 0.87891-3.4883-1.3789-4.3125 1.8828-2.0781-0.4375-3.9102-0.125-6.0156 2.918 1.1914 6.6094-0.027343 9 3.5898v-1.9727c0.56641 0.98047 0.90234 1.5664 1.2812 2.2383 0.41016-0.13281 0.83984-0.28125 1.4609-0.48828-0.23438 2.3516 1.8633 1.0547 2.8633 2.0312-0.074219-0.59766-0.11719-1.0039-0.20313-1.7148 0.58203 0.41016 0.92578 0.64453 1.2617 0.87891 0.12891-0.078124 0.26953-0.15234 0.39844-0.23437-0.23047-0.66016-0.46094-1.3203-0.58203-1.6797 2.1016 0.26172 4.375 0.55469 6.6484 0.83984-0.09375-0.32031-0.19141-0.64453-0.28125-0.95703 1.1914-1.0586 2.3516-2.1719 3.6406-3.1133 0.14062-0.10547 1.0039 0.76172 1.7266 1.332-0.085937-1.0742-0.14453-2.0234-0.21875-2.9727 0.10156-0.027344 0.20313-0.054687 0.30859-0.089844 0.23047 0.91406 0.46094 1.8242 0.75781 2.9922 0.29688-0.45312 0.49219-0.75 0.78516-1.1992 0.24219 0.41406 0.45312 0.76562 0.71875 1.2031 0.26172-0.39844 0.53906-0.8125 0.83594-1.2773 0.90234 0.47656 1.7734 0.94141 2.8125 1.4961 0.125-0.77734 0.22266-1.4219 0.35156-2.2383 0.89062 0.65625 1.707 1.25 2.7539 2.0156-0.0625-0.79688-0.10547-1.3477-0.17188-2.1953 0.42969 0.51562 0.71094 0.83984 0.92578 1.0977 2.2109-0.71875 0.73828-2.8516 1.9102-4.5469 0.42969 1.8633 0.78516 3.3984 1.2695 5.5312 0.28516-0.85156 0.41406-1.2266 0.54297-1.6055 0.17188 0.09375 0.34766 0.19141 0.52734 0.28516 0.11719 0.41016 0.22266 0.80469 0.33984 1.2109 1.8711 0.027344 0.59766-1.625 1.4062-2.2344 0.18359 0.24219 0.39062 0.53125 0.81641 1.0977 0.085937-0.77344 0.12891-1.2227 0.17969-1.6797 0.14453-0.023438 0.29688-0.042969 0.44141-0.066407 0.13281 0.85547 0.27344 1.7188 0.42578 2.6719 0.81641-0.56641 1.4688-0.99609 2.3125-1.5781 0.33594 0.42188 0.90234 1.1367 1.4766 1.8555 0.074219-0.050781 0.14062-0.09375 0.20703-0.13281-0.23047-0.51563-0.46484-1.0312-0.82812-1.8203 1.0234 0.53906 1.7656 0.92969 2.5703 1.3555-0.09375-0.49219-0.16406-0.89062-0.23438-1.2812 0.78516 1.1016 1.0977 2.7812 3 2.1211 0.60938-0.20703 1.0586-0.89063 1.6445-1.418-1.0312-1.1875-2.6328-1.8203-1.8711-3.293 0.18359 0.11719 0.35938 0.25391 0.53906 0.38672 1.9375 1.5352 3.1211 4.1055 6.0938 4.2266-0.46484-0.5-0.93359-1.0039-1.4062-1.5078 0.039062-0.09375 0.085937-0.18359 0.11719-0.27344 1.8633 0.78516 3.7344 1.5586 5.6211 2.3594-0.011719-0.089844-0.050781-0.375-0.13281-1.1211 3.7031 2.8164 7.8008 3.5117 12.047 3.625-0.19531-0.19141-0.39844-0.37891-0.59766-0.57812 0.75781-0.6875 1.5078-1.3828 2.2578-2.0703 0.18359 0.13281 0.36328 0.27344 0.55469 0.41406-0.25781-0.32031-0.51562-0.62891-0.80469-0.97266 1.2031-0.23047 2.2578-0.42969 3.5508-0.67188 0.035156 0.30078 0.10156 0.78906 0.17188 1.3984-0.8125 0.039062-1.4219 0.074218-2.0312 0.10547 0 0.16406 0.011719 0.33594 0.015625 0.49219 0.66016-0.054688 1.3672 0.011719 1.9805-0.19531 1.0625-0.37109 2.0547-1.2109 3.1211-1.2812 0.78906-0.0625 1.6406 0.78516 2.7812 1.3945 0.039063-0.027344 0.51953-0.33594 0.90625-0.59375v6.707c0.023438-0.003906 0.035157-0.011719 0.050782-0.015625-0.003906 0.003906-0.003906 0.015625-0.003906 0.027344 0.58203-0.14062 1.1602-0.27344 1.8047-0.42578-0.12891-0.60547-0.23438-1.0625-0.33594-1.5234 0.09375-0.089844 0.18359-0.17969 0.28125-0.26172 0.28125 0.28516 0.75781 0.54297 0.80078 0.85156 0.0625 0.82812-0.003907 1.7266-0.003907 2.8906z"/>
  <path d="m461.08 227.57c-0.11328-0.33203-0.21875-0.67188-0.42578-1.3203 1.1016 0.51953 2.7422-0.61719 2.7344 1.7305-0.37891-0.32031-0.58984-0.5-0.98047-0.82812 0.089844 0.70703 0.14062 1.2109 0.20312 1.7266-0.39062 0.011719-0.79688 0.015626-1.1914 0.023438-0.37891 0.17969-0.77344 0.36328-1.1523 0.54688 1.0938 1.1484 2.1953 2.2852 3.2812 3.4141 1.5078-1.1211 1.5898-1.3281 1.0547-2.9961-0.20312-0.62109-0.72266-1.1641-0.80078-1.7812-0.3125-2.5469-1.1367-3.293-3.543-3.0898-0.19531 0.011719-0.42578-0.39844-0.64844-0.62109-0.46875 0.35938-0.94531 0.72656-1.9414 1.5078 1.3945 0.67969 2.3945 1.1836 3.4102 1.6875z"/>
  <path d="m466.11 237.03c0.015625-0.20703 0.050781-0.55469 0.085937-0.90234-0.13281 0.125-0.28125 0.25781-0.41406 0.38672-0.5-0.46094-0.96484-0.95312-1.5078-1.3555-0.37891-0.28125-0.85156-0.44922-1.2891-0.66016 0.39062 0.77344 0.78516 1.5469 1.125 2.2227 0.65625 0.10547 1.3281 0.20703 2 0.30859z"/>
  <path d="m462.98 234.5-0.039063-0.078125-0.046875 0.023437 0.007813 0.015626z"/>
  <use x="70" y="644" xlink:href="#h"/>
  <use x="90.550781" y="644" xlink:href="#c"/>
  <use x="104.359375" y="644" xlink:href="#a"/>
  <use x="123.347656" y="644" xlink:href="#f"/>
  <use x="142.242188" y="644" xlink:href="#b"/>
  <use x="155.628906" y="644" xlink:href="#a"/>
  <use x="174.617188" y="644" xlink:href="#k"/>
  <use x="204.410156" y="644" xlink:href="#j"/>
  <use x="224.453125" y="644" xlink:href="#i"/>
  <use x="252.453125" y="644" xlink:href="#e"/>
  <use x="272.972656" y="644" xlink:href="#a"/>
  <use x="291.960938" y="644" xlink:href="#b"/>
  <use x="305.347656" y="644" xlink:href="#a"/>
  <use x="324.335938" y="644" xlink:href="#c"/>
  <use x="347.894531" y="644" xlink:href="#h"/>
  <use x="368.445312" y="644" xlink:href="#f"/>
  <use x="387.335938" y="644" xlink:href="#c"/>
  <use x="401.148438" y="644" xlink:href="#s"/>
  <use x="410.742188" y="644" xlink:href="#a"/>
  <use x="429.734375" y="644" xlink:href="#b"/>
  <use x="443.117187" y="644" xlink:href="#d"/>
  <use x="462.355469" y="644" xlink:href="#g"/>
  <use x="70" y="672" xlink:href="#r"/>
  <use x="82.183594" y="672" xlink:href="#c"/>
  <use x="95.992188" y="672" xlink:href="#d"/>
  <use x="115.226562" y="672" xlink:href="#q"/>
  <use x="154.152344" y="672" xlink:href="#b"/>
  <use x="167.535156" y="672" xlink:href="#p"/>
  <use x="187.46875" y="672" xlink:href="#a"/>
  <use x="216.207031" y="672" xlink:href="#o"/>
  <use x="239.640625" y="672" xlink:href="#d"/>
  <use x="258.878906" y="672" xlink:href="#n"/>
  <use x="278.8125" y="672" xlink:href="#g"/>
  <use x="308.492188" y="672" xlink:href="#e"/>
  <use x="329.015625" y="672" xlink:href="#c"/>
  <use x="342.820312" y="672" xlink:href="#d"/>
  <use x="362.058594" y="672" xlink:href="#m"/>
  <use x="371.65625" y="672" xlink:href="#a"/>
  <use x="390.648438" y="672" xlink:href="#l"/>
  <use x="407.242188" y="672" xlink:href="#b"/>
 </g>
</svg>
